<?xml version="1.0" encoding="UTF-8" standalone="no"?>
<!-- Created with Inkscape (http://www.inkscape.org/) -->

<svg
   width="1920"
   height="512"
   viewBox="0 0 507.99997 135.46667"
   version="1.1"
   id="svg5"
   inkscape:version="1.3 (0e150ed6c4, 2023-07-21)"
   sodipodi:docname="doc-header-silver-font-curves.svg"
   inkscape:export-filename="orig-clean3.png"
   inkscape:export-xdpi="48"
   inkscape:export-ydpi="48"
   xmlns:inkscape="http://www.inkscape.org/namespaces/inkscape"
   xmlns:sodipodi="http://sodipodi.sourceforge.net/DTD/sodipodi-0.dtd"
   xmlns:xlink="http://www.w3.org/1999/xlink"
   xmlns="http://www.w3.org/2000/svg"
   xmlns:svg="http://www.w3.org/2000/svg">
  <sodipodi:namedview
     id="namedview7"
     pagecolor="#292929"
     bordercolor="#666666"
     borderopacity="1"
     inkscape:showpageshadow="0"
     inkscape:pageopacity="0"
     inkscape:pagecheckerboard="1"
     inkscape:deskcolor="#1a1a1a"
     inkscape:document-units="px"
     showgrid="false"
     inkscape:zoom="0.65186405"
     inkscape:cx="936.54497"
     inkscape:cy="349.76618"
     inkscape:window-width="3256"
     inkscape:window-height="1080"
     inkscape:window-x="1864"
     inkscape:window-y="0"
     inkscape:window-maximized="0"
     inkscape:current-layer="layer1" />
  <defs
     id="defs2">
    <linearGradient
       id="linearGradient2"
       inkscape:collect="always">
      <stop
         style="stop-color:#cccccc;stop-opacity:1;"
         offset="0"
         id="stop3" />
      <stop
         style="stop-color:#ffffff;stop-opacity:1;"
         offset="1"
         id="stop4" />
    </linearGradient>
    <linearGradient
       id="linearGradient1"
       inkscape:collect="always">
      <stop
         style="stop-color:#ff0000;stop-opacity:1;"
         offset="0"
         id="stop1" />
      <stop
         style="stop-color:#7b0000;stop-opacity:1;"
         offset="1"
         id="stop2" />
    </linearGradient>
    <linearGradient
       inkscape:collect="always"
       xlink:href="#linearGradient1"
       id="linearGradient7"
       x1="-40.367641"
       y1="135.46667"
       x2="-40.367641"
       y2="7.040176e-09"
       gradientUnits="userSpaceOnUse"
       gradientTransform="matrix(0.8796,0,0,1,279.63925,-5.2427174e-6)" />
    <linearGradient
       inkscape:collect="always"
       xlink:href="#linearGradient2"
       id="linearGradient4"
       x1="270.25449"
       y1="95.736832"
       x2="270.25449"
       y2="39.317081"
       gradientUnits="userSpaceOnUse" />
    <linearGradient
       inkscape:collect="always"
       xlink:href="#linearGradient8"
       id="linearGradient12"
       x1="33.593552"
       y1="94.015961"
       x2="101.87311"
       y2="94.015961"
       gradientUnits="userSpaceOnUse"
       gradientTransform="translate(79.095196,82.539087)" />
    <linearGradient
       id="linearGradient8"
       inkscape:collect="always">
      <stop
         style="stop-color:#999999;stop-opacity:1;"
         offset="0"
         id="stop8" />
      <stop
         style="stop-color:#ffffff;stop-opacity:1;"
         offset="0.49739641"
         id="stop10" />
      <stop
         style="stop-color:#999999;stop-opacity:1;"
         offset="1"
         id="stop9" />
    </linearGradient>
    <linearGradient
       inkscape:collect="always"
       xlink:href="#linearGradient3"
       id="linearGradient4-5"
       x1="-86.000687"
       y1="26.722916"
       x2="-86.000687"
       y2="33.833076"
       gradientUnits="userSpaceOnUse"
       gradientTransform="translate(232.82922,132.23606)" />
    <linearGradient
       id="linearGradient3"
       inkscape:collect="always">
      <stop
         style="stop-color:#000000;stop-opacity:1;"
         offset="0"
         id="stop3-9" />
      <stop
         style="stop-color:#333333;stop-opacity:1;"
         offset="0.49069679"
         id="stop5" />
      <stop
         style="stop-color:#000000;stop-opacity:1;"
         offset="1"
         id="stop4-2" />
    </linearGradient>
    <linearGradient
       inkscape:collect="always"
       xlink:href="#linearGradient3"
       id="linearGradient6"
       gradientUnits="userSpaceOnUse"
       gradientTransform="translate(232.82922,146.27705)"
       x1="-86.000687"
       y1="26.722916"
       x2="-86.000687"
       y2="33.833076" />
    <linearGradient
       id="linearGradient7-2"
       inkscape:collect="always"
       gradientTransform="matrix(3.0127406,0,0,0.3319237,79.095196,82.539087)"
       x1="11.771764"
       y1="314.8511"
       x2="33.192831"
       y2="314.8511"
       gradientUnits="userSpaceOnUse">
      <stop
         style="stop-color:#000000;stop-opacity:1;"
         offset="0"
         id="stop1-8" />
      <stop
         style="stop-color:#333333;stop-opacity:1;"
         offset="0.49069679"
         id="stop2-9" />
      <stop
         style="stop-color:#000000;stop-opacity:1;"
         offset="1"
         id="stop6" />
    </linearGradient>
    <linearGradient
       inkscape:collect="always"
       xlink:href="#linearGradient8"
       id="linearGradient9"
       gradientUnits="userSpaceOnUse"
       gradientTransform="translate(232.82922,160.32271)"
       x1="-51.860909"
       y1="-10.70374"
       x2="-120.14047"
       y2="-10.70374" />
    <linearGradient
       inkscape:collect="always"
       xlink:href="#linearGradient8"
       id="linearGradient14"
       x1="33.593552"
       y1="65.967026"
       x2="101.87311"
       y2="65.967026"
       gradientUnits="userSpaceOnUse" />
  </defs>
  <g
     inkscape:label="Layer 1"
     inkscape:groupmode="layer"
     id="layer1">
    <rect
       style="fill:url(#linearGradient7);stroke-width:6.35;stroke-linecap:round;stroke-linejoin:round;stroke-opacity:0.4;paint-order:stroke markers fill"
       id="rect5"
       width="508"
       height="135.46667"
       x="-4.3750006e-06"
       y="-5.2356772e-06"
       rx="0"
       ry="0"
       inkscape:label="header"
       inkscape:export-filename="doc-header-1024x273.png"
       inkscape:export-xdpi="51.200001"
       inkscape:export-ydpi="51.200001" />
    <path
       style="font-weight:900;font-size:63.5px;line-height:1.25;font-family:'TASA Orbiter Display';-inkscape-font-specification:'TASA Orbiter Display, Heavy';stroke-width:0.264583;fill:url(#linearGradient4)"
       d="m 163.12469,83.76708 c 12.065,0 21.336,-8.382 21.336,-22.225 0,-13.843 -9.271,-22.225 -21.336,-22.225 -12.065,0 -21.336,8.382 -21.336,22.225 0,13.843 9.271,22.225 21.336,22.225 z m -10.795,-21.59 v -1.27 c 0,-7.4295 4.2545,-12.192 10.795,-12.192 6.5405,0 10.795,4.7625 10.795,12.192 v 1.27 c 0,7.4295 -4.2545,12.192 -10.795,12.192 -6.5405,0 -10.795,-4.7625 -10.795,-12.192 z m 35.6235,33.655 h 10.16 v -17.399 c 1.9685,3.302 5.3975,5.334 9.5885,5.334 6.604,0 12.7635,-5.08 12.7635,-16.51 0,-11.43 -6.1595,-16.51 -12.7635,-16.51 -4.3815,0 -8.001,2.286 -9.906,5.842 v -5.207 h -9.8425 z m 10.16,-27.305 v -2.413 c 0,-5.0165 2.2225,-7.9375 5.842,-7.9375 3.7465,0 5.969,3.048 5.969,8.5725 v 1.143 c 0,5.08 -2.2225,7.9375 -5.969,7.9375 -3.6195,0 -5.842,-2.7305 -5.842,-7.3025 z m 42.29095,15.24 c 8.255,0 13.843,-4.2545 14.9225,-10.668 h -9.525 c -0.635,1.8415 -2.54,3.2385 -5.3975,3.2385 -4.1275,0 -6.35,-2.9845 -6.35,-6.223 v -0.5715 h 21.6535 v -2.286 c 0,-10.6045 -6.477,-16.51 -15.8115,-16.51 -9.271,0 -16.383,5.715 -16.383,16.51 0,10.795 7.3025,16.51 16.891,16.51 z m -6.35,-20.32 c 0.254,-3.175 2.413,-5.2705 5.842,-5.2705 3.6195,0 5.5245,2.3495 5.5245,5.2705 z m 25.27296,19.685 h 10.16 v -17.4625 c 0,-4.6355 2.032,-6.604 5.3975,-6.604 3.175,0 4.8895,1.778 4.8895,5.0165 v 19.05 h 10.16 v -20.447 c 0,-8.382 -4.826,-11.938 -10.6045,-11.938 -5.334,0 -8.382,3.1115 -10.16,6.731 v -6.096 h -9.8425 z m 57.72144,-17.3355 5.9055,1.0795 c 3.81,0.6985 5.207,2.159 5.207,4.1275 0,2.54 -2.3495,4.064 -6.35,4.064 -5.842,0 -7.874,-3.302 -7.9375,-6.858 h -10.414 c 0.5715,8.128 5.334,15.5575 17.9705,15.5575 10.0965,0 17.145,-4.7625 17.145,-13.6525 0,-7.239 -4.572,-11.43 -13.081,-12.954 l -5.969,-1.0795 c -3.81,-0.6985 -5.207,-1.9685 -5.207,-3.937 0,-2.54 2.3495,-4.1275 6.35,-4.1275 5.842,0 7.8105,3.302 7.9375,6.858 h 10.414 c -0.5715,-8.128 -5.334,-15.5575 -17.9705,-15.5575 -10.0965,0 -17.145,4.7625 -17.145,13.6525 0,7.239 4.699,11.303 13.1445,12.827 z m 35.75053,17.3355 h 6.7945 v -8.509 h -2.667 c -2.032,0 -2.4765,-0.381 -2.4765,-2.3495 v -12.3825 h 5.1435 v -8.509 h -5.1435 v -8.89 l -10.16,1.905 v 6.985 h -3.3655 v 8.509 h 3.3655 v 14.4145 c 0,5.715 2.2225,8.8265 8.509,8.8265 z m 25.527,0.635 c 8.255,0 13.843,-4.2545 14.9225,-10.668 h -9.525 c -0.635,1.8415 -2.54,3.2385 -5.3975,3.2385 -4.1275,0 -6.35,-2.9845 -6.35,-6.223 v -0.5715 h 21.6535 v -2.286 c 0,-10.6045 -6.477,-16.51 -15.8115,-16.51 -9.271,0 -16.383,5.715 -16.383,16.51 0,10.795 7.3025,16.51 16.891,16.51 z m -6.35,-20.32 c 0.254,-3.175 2.413,-5.2705 5.842,-5.2705 3.6195,0 5.5245,2.3495 5.5245,5.2705 z m 34.60747,20.32 c 4.826,0 8.128,-2.0955 9.8425,-5.715 v 5.08 h 9.8425 v -19.3675 c 0,-8.3185 -5.08,-13.0175 -14.224,-13.0175 -8.382,0 -14.478,3.937 -15.24,11.938 h 10.287 c 0.0635,-2.9845 1.778,-4.3815 4.6355,-4.3815 2.7305,0 4.3815,1.27 4.3815,4.191 v 0.127 l -10.3505,2.667 c -4.8895,1.27 -9.0805,4.191 -9.0805,9.7155 0,4.826 3.2385,8.763 9.906,8.763 z m 0.254,-10.0965 c 0,-1.5875 1.0795,-2.921 3.6195,-3.556 l 5.6515,-1.397 v 1.8415 c 0,3.6195 -1.7145,6.223 -5.334,6.223 -2.3495,0 -3.937,-1.143 -3.937,-3.1115 z m 23.74896,9.4615 h 10.16 v -17.4625 c 0,-4.6355 1.9685,-6.604 5.2705,-6.604 3.1115,0 4.7625,1.778 4.7625,5.0165 v 19.05 h 10.16 v -17.4625 c 0,-4.6355 1.9685,-6.604 5.2705,-6.604 3.1115,0 4.7625,1.778 4.7625,5.0165 v 19.05 h 10.16 v -20.447 c 0,-8.382 -4.7625,-11.938 -10.4775,-11.938 -5.3975,0 -8.636,3.2385 -10.414,6.9215 -1.524,-4.826 -5.3975,-6.9215 -9.779,-6.9215 -5.334,0 -8.3185,3.1115 -10.033,6.731 v -6.096 h -9.8425 z"
       id="text3"
       aria-label="Open Steam" />
    <path
       style="font-size:10.5833px;line-height:1.25;display:inline;fill:#ffffff;stroke-width:0.264583"
       d="m 209.29473,94.794919 q 0,1.174746 -0.40216,2.05316 -0.39158,0.867831 -1.16416,1.354662 -0.77258,0.486832 -1.91558,0.486832 -1.17475,0 -1.95791,-0.486832 -0.77258,-0.486831 -1.15358,-1.365245 -0.381,-0.878414 -0.381,-2.05316 0,-1.164163 0.381,-2.031994 0.381,-0.86783 1.15358,-1.354662 0.78316,-0.486832 1.96849,-0.486832 1.13242,0 1.905,0.486832 0.77258,0.476248 1.16416,1.354662 0.40216,0.867831 0.40216,2.042577 z m -5.96898,0 q 0,1.428745 0.60325,2.254243 0.60325,0.814914 1.88383,0.814914 1.29116,0 1.88383,-0.814914 0.59266,-0.825498 0.59266,-2.254243 0,-1.428745 -0.59266,-2.233076 -0.59267,-0.814914 -1.87325,-0.814914 -1.28058,0 -1.89441,0.814914 -0.60325,0.804331 -0.60325,2.233076 z m 10.21289,-1.98966 q 1.04775,0 1.68274,0.730247 0.64558,0.730248 0.64558,2.201327 0,1.449912 -0.64558,2.201326 -0.63499,0.751414 -1.69332,0.751414 -0.65617,0 -1.09008,-0.243416 -0.42334,-0.253999 -0.66675,-0.582081 h -0.0635 q 0.0212,0.179916 0.0423,0.455082 0.0212,0.275166 0.0212,0.476248 v 2.328324 h -0.93133 v -8.212638 h 0.762 l 0.12699,0.772581 h 0.0423 q 0.254,-0.370416 0.66675,-0.624415 0.41274,-0.253999 1.10066,-0.253999 z m -0.16933,0.783164 q -0.86783,0 -1.22767,0.486832 -0.34925,0.486831 -0.37041,1.481662 v 0.179916 q 0,1.047746 0.33866,1.619244 0.34925,0.560915 1.28058,0.560915 0.51858,0 0.84667,-0.285749 0.33866,-0.285749 0.49741,-0.772581 0.16933,-0.497415 0.16933,-1.132413 0,-0.973663 -0.38099,-1.555745 -0.37042,-0.582081 -1.15358,-0.582081 z m 6.17006,-0.783164 q 0.73025,0 1.24883,0.317499 0.52916,0.317499 0.80433,0.89958 0.28575,0.571498 0.28575,1.344079 v 0.560915 h -3.88407 q 0.0212,0.96308 0.48683,1.471079 0.47625,0.497415 1.32291,0.497415 0.53975,0 0.9525,-0.09525 0.42333,-0.105833 0.86783,-0.296332 v 0.814914 q -0.43392,0.190499 -0.85725,0.275166 -0.42333,0.09525 -1.00541,0.09525 -0.80433,0 -1.42875,-0.328082 -0.61383,-0.328082 -0.96308,-0.973664 -0.33866,-0.656164 -0.33866,-1.598078 0,-0.93133 0.30691,-1.598078 0.3175,-0.666748 0.87842,-1.02658 0.57149,-0.359832 1.32291,-0.359833 z m -0.0106,0.761997 q -0.66674,0 -1.05833,0.433915 -0.38099,0.423332 -0.45508,1.18533 h 2.88924 q -0.0106,-0.719664 -0.33866,-1.164163 -0.32808,-0.455082 -1.03717,-0.455082 z m 6.51931,-0.761997 q 1.01599,0 1.53458,0.497415 0.51858,0.486831 0.51858,1.587495 v 3.693571 h -0.92075 v -3.630072 q 0,-1.365245 -1.26999,-1.365245 -0.94192,0 -1.30175,0.529165 -0.35983,0.529165 -0.35983,1.523995 v 2.942157 h -0.93133 v -5.672648 h 0.75141 l 0.13758,0.772581 h 0.0529 q 0.27517,-0.444499 0.762,-0.656165 0.48683,-0.222249 1.02658,-0.222249 z m 8.22322,3.757071 q 0,1.005413 -0.73025,1.566328 -0.73024,0.560915 -1.96849,0.560915 -0.635,0 -1.17475,-0.09525 -0.53974,-0.09525 -0.89958,-0.264583 v -0.910164 q 0.381,0.169333 0.94192,0.306916 0.5715,0.137583 1.17474,0.137583 0.84667,0 1.27,-0.328082 0.43392,-0.328083 0.43392,-0.888998 0,-0.370415 -0.15875,-0.624414 -0.15875,-0.253999 -0.55034,-0.465665 -0.38099,-0.22225 -1.06891,-0.465666 -0.96308,-0.349249 -1.46049,-0.857247 -0.48684,-0.507998 -0.48684,-1.386412 0,-0.603248 0.30692,-1.02658 0.30692,-0.433916 0.84666,-0.666748 0.55034,-0.232833 1.25942,-0.232833 0.62441,0 1.14299,0.116417 0.51858,0.116416 0.94192,0.306915 l -0.29634,0.814914 q -0.39158,-0.169332 -0.85724,-0.285749 -0.45509,-0.116416 -0.9525,-0.116416 -0.70908,0 -1.06891,0.306916 -0.35984,0.296332 -0.35984,0.793747 0,0.380999 0.15875,0.634998 0.15875,0.253999 0.51859,0.455082 0.35983,0.201083 0.97366,0.433915 0.66675,0.243416 1.12183,0.529165 0.46566,0.275166 0.6985,0.666748 0.24341,0.391582 0.24341,0.984248 z m 3.29141,1.365246 q 0.21166,0 0.43391,-0.03175 0.22225,-0.04233 0.35983,-0.08467 v 0.709081 q -0.14816,0.07408 -0.42333,0.116417 -0.27516,0.05292 -0.52916,0.05292 -0.4445,0 -0.8255,-0.148166 -0.37041,-0.158749 -0.60325,-0.539748 -0.23283,-0.380999 -0.23283,-1.068914 v -3.301989 h -0.80433 v -0.444499 l 0.81491,-0.370415 0.37042,-1.206496 h 0.55033 v 1.301746 h 1.64041 v 0.719664 h -1.64041 v 3.280823 q 0,0.518582 0.24342,0.772581 0.254,0.243416 0.64558,0.243415 z m 4.1169,-5.122317 q 0.73025,0 1.24883,0.317499 0.52917,0.317499 0.80433,0.89958 0.28575,0.571498 0.28575,1.344079 v 0.560915 h -3.88407 q 0.0212,0.96308 0.48683,1.471079 0.47625,0.497415 1.32291,0.497415 0.53975,0 0.9525,-0.09525 0.42333,-0.105833 0.86783,-0.296332 v 0.814914 q -0.43391,0.190499 -0.85725,0.275166 -0.42333,0.09525 -1.00541,0.09525 -0.80433,0 -1.42874,-0.328082 -0.61384,-0.328082 -0.96308,-0.973664 -0.33867,-0.656164 -0.33867,-1.598078 0,-0.93133 0.30692,-1.598078 0.31749,-0.666748 0.87841,-1.02658 0.5715,-0.359832 1.32291,-0.359833 z m -0.0106,0.761997 q -0.66675,0 -1.05833,0.433915 -0.381,0.423332 -0.45508,1.18533 h 2.88924 q -0.0106,-0.719664 -0.33867,-1.164163 -0.32808,-0.455082 -1.03716,-0.455082 z m 5.93722,-0.751414 q 1.03716,0 1.53458,0.455082 0.49741,0.455082 0.49741,1.449912 v 3.862904 h -0.67733 l -0.17991,-0.804331 h -0.0423 q -0.37041,0.465666 -0.78316,0.687915 -0.40217,0.222249 -1.12183,0.222249 -0.77258,0 -1.28058,-0.402165 -0.508,-0.412749 -0.508,-1.280579 0,-0.846664 0.66675,-1.301746 0.66675,-0.465665 2.05316,-0.507999 l 0.96308,-0.03175 v -0.338665 q 0,-0.709081 -0.30692,-0.984247 -0.30691,-0.275166 -0.86783,-0.275166 -0.4445,0 -0.84666,0.137583 -0.40217,0.127 -0.75141,0.296332 l -0.28575,-0.698497 q 0.37041,-0.201083 0.87841,-0.338666 0.508,-0.148166 1.05833,-0.148166 z m 0.27517,3.026824 q -1.05833,0.04233 -1.47108,0.338665 -0.40217,0.296333 -0.40217,0.836081 0,0.476248 0.28575,0.698498 0.29633,0.222249 0.75141,0.222249 0.71967,0 1.19592,-0.391582 0.47625,-0.402166 0.47625,-1.227663 v -0.507998 z m 9.73664,-3.037407 q 0.96308,0 1.43933,0.497415 0.47625,0.486831 0.47625,1.587495 v 3.693571 h -0.92075 v -3.651238 q 0,-1.344079 -1.15358,-1.344079 -0.8255,0 -1.18533,0.476248 -0.34925,0.476249 -0.34925,1.386413 V 98.58374 H 255.004 v -3.651238 q 0,-1.344079 -1.16417,-1.344079 -0.85724,0 -1.18533,0.529165 -0.32808,0.529165 -0.32808,1.523995 v 2.942157 h -0.93133 v -5.672648 h 0.75141 l 0.13759,0.772581 h 0.0529 q 0.26459,-0.444499 0.70909,-0.656165 0.45508,-0.222249 0.96308,-0.222249 1.33349,0 1.73566,0.952497 h 0.0529 q 0.28575,-0.486832 0.77258,-0.719665 0.49742,-0.232832 1.04775,-0.232832 z m 7.33422,2.571741 q -0.13758,-0.433915 -0.24342,-0.846664 -0.0952,-0.423332 -0.14816,-0.656164 h -0.0423 q -0.0423,0.232832 -0.13759,0.656164 -0.0952,0.412749 -0.24341,0.857248 l -1.016,3.185573 h -1.05833 l -1.55575,-5.672649 h 0.96308 l 0.78317,3.026824 q 0.11642,0.455082 0.22225,0.920747 0.10583,0.465665 0.14816,0.772581 h 0.0423 q 0.0423,-0.179916 0.0953,-0.444499 0.0635,-0.264582 0.13758,-0.550331 0.0741,-0.296333 0.14817,-0.529165 l 1.00541,-3.196157 h 1.016 l 0.97366,3.196157 q 0.11642,0.359832 0.22225,0.783164 0.11642,0.423332 0.15875,0.730248 h 0.0423 q 0.0317,-0.264583 0.13759,-0.730248 0.11641,-0.465665 0.24341,-0.952497 l 0.79375,-3.026824 h 0.9525 l -1.57692,5.672649 h -1.09008 z m 9.58846,0.359833 q 0,1.407578 -0.71967,2.180159 -0.70908,0.772581 -1.92616,0.772581 -0.75141,0 -1.34408,-0.338665 -0.58208,-0.349249 -0.92074,-1.005414 -0.33867,-0.666748 -0.33867,-1.608661 0,-1.407579 0.70908,-2.169577 0.70908,-0.761997 1.92616,-0.761997 0.77258,0 1.35467,0.349249 0.59266,0.338665 0.92074,0.99483 0.33867,0.645581 0.33867,1.587495 z m -4.28624,0 q 0,1.005413 0.39158,1.598078 0.40217,0.582081 1.27,0.582081 0.85725,0 1.25941,-0.582081 0.40217,-0.592665 0.40217,-1.598078 0,-1.005414 -0.40217,-1.576912 -0.40216,-0.571498 -1.26999,-0.571498 -0.86783,0 -1.25942,0.571498 -0.39158,0.571498 -0.39158,1.576912 z m 8.40314,-2.931574 q 0.15875,0 0.33866,0.02117 0.1905,0.01058 0.32809,0.04233 l -0.11642,0.857248 q -0.13758,-0.03175 -0.30692,-0.05292 -0.15874,-0.02117 -0.30691,-0.02117 -0.43392,0 -0.81491,0.243415 -0.381,0.232833 -0.61384,0.666748 -0.22225,0.423332 -0.22225,0.994831 v 3.026823 h -0.93133 v -5.672648 h 0.762 l 0.10583,1.037163 h 0.0423 q 0.27516,-0.465665 0.70908,-0.804331 0.43391,-0.338665 1.02658,-0.338665 z m 2.64582,1.936743 q 0,0.169333 -0.0212,0.444499 -0.0106,0.275166 -0.0212,0.476249 h 0.0423 q 0.0635,-0.08467 0.1905,-0.243416 0.127,-0.15875 0.254,-0.317499 0.13759,-0.169333 0.23284,-0.275166 l 1.80974,-1.915577 h 1.09008 l -2.29658,2.423575 2.45533,3.249073 h -1.12183 l -1.96849,-2.645825 -0.64559,0.560915 v 2.08491 h -0.92074 v -8.043307 h 0.92074 z m 8.42432,2.27541 q 0,0.825497 -0.61383,1.248829 -0.61383,0.423332 -1.651,0.423332 -0.59266,0 -1.02658,-0.09525 -0.42333,-0.09525 -0.75141,-0.264583 v -0.846664 q 0.33866,0.169333 0.81491,0.317499 0.48683,0.137583 0.98425,0.137583 0.70908,0 1.02658,-0.222249 0.3175,-0.232833 0.3175,-0.613832 0,-0.211666 -0.11642,-0.380999 -0.11642,-0.169332 -0.42333,-0.338665 -0.29633,-0.169333 -0.85725,-0.380999 -0.55033,-0.211666 -0.94191,-0.423332 -0.39158,-0.211666 -0.60325,-0.507998 -0.21167,-0.296333 -0.21167,-0.761998 0,-0.719664 0.58209,-1.111246 0.59266,-0.391582 1.54516,-0.391582 0.51858,0 0.96308,0.105833 0.45508,0.09525 0.84666,0.275165 l -0.3175,0.740831 q -0.35983,-0.148166 -0.75141,-0.253999 -0.39158,-0.105833 -0.80433,-0.105833 -0.5715,0 -0.87842,0.1905 -0.29633,0.179916 -0.29633,0.497415 0,0.232832 0.13758,0.402165 0.13759,0.15875 0.45509,0.317499 0.32808,0.148166 0.86783,0.359832 0.53975,0.201083 0.92074,0.412749 0.381,0.211666 0.58209,0.518582 0.20108,0.296332 0.20108,0.751414 z m 1.23825,0.99483 q 0,-0.391582 0.1905,-0.550332 0.1905,-0.158749 0.45508,-0.158749 0.27517,0 0.46566,0.158749 0.20109,0.15875 0.20109,0.550332 0,0.380999 -0.20109,0.550332 -0.19049,0.169332 -0.46566,0.169332 -0.26458,0 -0.45508,-0.169332 -0.1905,-0.169333 -0.1905,-0.550332 z m 5.81023,-6.25473 q -1.21708,0 -1.91558,0.814914 -0.6985,0.814914 -0.6985,2.233076 0,1.407579 0.64559,2.233076 0.65616,0.814915 1.95791,0.814915 0.49741,0 0.94191,-0.08467 0.4445,-0.08467 0.86783,-0.211666 v 0.825498 q -0.42333,0.158749 -0.87841,0.232832 -0.4445,0.07408 -1.06892,0.07408 -1.15358,0 -1.92616,-0.476248 -0.77258,-0.476249 -1.16416,-1.354663 -0.381,-0.878413 -0.381,-2.063743 0,-1.142996 0.41275,-2.010827 0.42333,-0.878414 1.23825,-1.365246 0.81491,-0.497415 1.97907,-0.497415 1.19592,0 2.08491,0.444499 l -0.381,0.804331 q -0.34924,-0.15875 -0.78316,-0.285749 -0.42333,-0.127 -0.93133,-0.127 z m 4.25449,6.826228 h -0.93134 v -8.043307 h 0.93134 z m 2.2754,-7.799892 q 0.21166,0 0.37041,0.148167 0.16934,0.137582 0.16934,0.444498 0,0.296333 -0.16934,0.444499 -0.15875,0.148166 -0.37041,0.148166 -0.23284,0 -0.39158,-0.148166 -0.15875,-0.148166 -0.15875,-0.444499 0,-0.306916 0.15875,-0.444498 0.15874,-0.148167 0.39158,-0.148167 z m 0.45508,2.127244 v 5.672648 h -0.93133 v -5.672648 z m 3.9899,-0.105833 q 0.73025,0 1.24883,0.317499 0.52917,0.317499 0.80433,0.89958 0.28575,0.571498 0.28575,1.344079 v 0.560915 h -3.88407 q 0.0212,0.96308 0.48683,1.471079 0.47625,0.497415 1.32292,0.497415 0.53974,0 0.95249,-0.09525 0.42333,-0.105833 0.86783,-0.296332 v 0.814914 q -0.43391,0.190499 -0.85724,0.275166 -0.42334,0.09525 -1.00542,0.09525 -0.80433,0 -1.42874,-0.328082 -0.61383,-0.328082 -0.96308,-0.973664 -0.33867,-0.656164 -0.33867,-1.598078 0,-0.93133 0.30692,-1.598078 0.3175,-0.666748 0.87841,-1.02658 0.5715,-0.359832 1.32291,-0.359833 z m -0.0106,0.761997 q -0.66675,0 -1.05833,0.433915 -0.381,0.423332 -0.45508,1.18533 h 2.88924 q -0.0106,-0.719664 -0.33867,-1.164163 -0.32808,-0.455082 -1.03716,-0.455082 z m 6.5193,-0.761997 q 1.016,0 1.53458,0.497415 0.51858,0.486831 0.51858,1.587495 v 3.693571 h -0.92074 v -3.630072 q 0,-1.365245 -1.27,-1.365245 -0.94191,0 -1.30175,0.529165 -0.35983,0.529165 -0.35983,1.523995 v 2.942157 h -0.93133 v -5.672648 h 0.75142 l 0.13758,0.772581 h 0.0529 q 0.27516,-0.444499 0.76199,-0.656165 0.48683,-0.222249 1.02658,-0.222249 z m 5.7044,5.122317 q 0.21166,0 0.43391,-0.03175 0.22225,-0.04233 0.35983,-0.08467 v 0.709081 q -0.14816,0.07408 -0.42333,0.116417 -0.27516,0.05292 -0.52916,0.05292 -0.4445,0 -0.8255,-0.148166 -0.37042,-0.158749 -0.60325,-0.539748 -0.23283,-0.380999 -0.23283,-1.068914 v -3.301989 h -0.80433 v -0.444499 l 0.81491,-0.370415 0.37042,-1.206496 h 0.55033 v 1.301746 h 1.64041 v 0.719664 h -1.64041 v 3.280823 q 0,0.518582 0.24342,0.772581 0.25399,0.243416 0.64558,0.243415 z m 7.17548,-3.450156 h 2.10608 v 0.751414 h -2.10608 v 2.18016 h -0.762 v -2.18016 h -2.10607 V 94.47742 h 2.10607 v -2.190743 h 0.762 z m 13.02806,0.317499 q 0,1.174746 -0.40217,2.05316 -0.39158,0.867831 -1.16416,1.354662 -0.77258,0.486832 -1.91558,0.486832 -1.17475,0 -1.95791,-0.486832 -0.77258,-0.486831 -1.15358,-1.365245 -0.381,-0.878414 -0.381,-2.05316 0,-1.164163 0.381,-2.031994 0.381,-0.86783 1.15358,-1.354662 0.78316,-0.486832 1.96849,-0.486832 1.13242,0 1.905,0.486832 0.77258,0.476248 1.16416,1.354662 0.40217,0.867831 0.40217,2.042577 z m -5.96898,0 q 0,1.428745 0.60324,2.254243 0.60325,0.814914 1.88383,0.814914 1.29116,0 1.88383,-0.814914 0.59266,-0.825498 0.59266,-2.254243 0,-1.428745 -0.59266,-2.233076 -0.59267,-0.814914 -1.87325,-0.814914 -1.28057,0 -1.89441,0.814914 -0.60324,0.804331 -0.60324,2.233076 z m 10.21287,-1.98966 q 1.04775,0 1.68275,0.730247 0.64558,0.730248 0.64558,2.201327 0,1.449912 -0.64558,2.201326 -0.635,0.751414 -1.69333,0.751414 -0.65617,0 -1.09008,-0.243416 -0.42333,-0.253999 -0.66675,-0.582081 h -0.0635 q 0.0212,0.179916 0.0423,0.455082 0.0212,0.275166 0.0212,0.476248 v 2.328324 h -0.93133 v -8.212638 h 0.762 l 0.127,0.772581 h 0.0423 q 0.254,-0.370416 0.66675,-0.624415 0.41275,-0.253999 1.10066,-0.253999 z m -0.16933,0.783164 q -0.86783,0 -1.22766,0.486832 -0.34925,0.486831 -0.37042,1.481662 v 0.179916 q 0,1.047746 0.33867,1.619244 0.34925,0.560915 1.28058,0.560915 0.51858,0 0.84666,-0.285749 0.33866,-0.285749 0.49741,-0.772581 0.16934,-0.497415 0.16934,-1.132413 0,-0.973663 -0.381,-1.555745 -0.37042,-0.582081 -1.15358,-0.582081 z m 6.17006,-0.783164 q 0.73025,0 1.24883,0.317499 0.52917,0.317499 0.80433,0.89958 0.28575,0.571498 0.28575,1.344079 v 0.560915 h -3.88407 q 0.0212,0.96308 0.48683,1.471079 0.47625,0.497415 1.32291,0.497415 0.53975,0 0.9525,-0.09525 0.42333,-0.105833 0.86783,-0.296332 v 0.814914 q -0.43391,0.190499 -0.85725,0.275166 -0.42333,0.09525 -1.00541,0.09525 -0.80433,0 -1.42874,-0.328082 -0.61384,-0.328082 -0.96309,-0.973664 -0.33866,-0.656164 -0.33866,-1.598078 0,-0.93133 0.30691,-1.598078 0.3175,-0.666748 0.87842,-1.02658 0.5715,-0.359832 1.32291,-0.359833 z m -0.0106,0.761997 q -0.66675,0 -1.05833,0.433915 -0.381,0.423332 -0.45508,1.18533 h 2.88924 q -0.0106,-0.719664 -0.33867,-1.164163 -0.32808,-0.455082 -1.03716,-0.455082 z m 6.51931,-0.761997 q 1.016,0 1.53458,0.497415 0.51858,0.486831 0.51858,1.587495 v 3.693571 h -0.92075 v -3.630072 q 0,-1.365245 -1.26999,-1.365245 -0.94192,0 -1.30175,0.529165 -0.35983,0.529165 -0.35983,1.523995 v 2.942157 h -0.93133 v -5.672648 h 0.75141 l 0.13758,0.772581 h 0.0529 q 0.27517,-0.444499 0.762,-0.656165 0.48683,-0.222249 1.02658,-0.222249 z m 8.22322,3.757071 q 0,1.005413 -0.73024,1.566328 -0.73025,0.560915 -1.9685,0.560915 -0.63499,0 -1.17474,-0.09525 -0.53975,-0.09525 -0.89958,-0.264583 v -0.910164 q 0.381,0.169333 0.94191,0.306916 0.5715,0.137583 1.17475,0.137583 0.84666,0 1.26999,-0.328082 0.43392,-0.328083 0.43392,-0.888998 0,-0.370415 -0.15875,-0.624414 -0.15875,-0.253999 -0.55033,-0.465665 -0.381,-0.22225 -1.06892,-0.465666 -0.96308,-0.349249 -1.46049,-0.857247 -0.48683,-0.507998 -0.48683,-1.386412 0,-0.603248 0.30691,-1.02658 0.30692,-0.433916 0.84667,-0.666748 0.55033,-0.232833 1.25941,-0.232833 0.62441,0 1.14299,0.116417 0.51859,0.116416 0.94192,0.306915 l -0.29633,0.814914 q -0.39159,-0.169332 -0.85725,-0.285749 -0.45508,-0.116416 -0.9525,-0.116416 -0.70908,0 -1.06891,0.306916 -0.35983,0.296332 -0.35983,0.793747 0,0.380999 0.15875,0.634998 0.15875,0.253999 0.51858,0.455082 0.35983,0.201083 0.97366,0.433915 0.66675,0.243416 1.12183,0.529165 0.46567,0.275166 0.6985,0.666748 0.24341,0.391582 0.24341,0.984248 z m 3.29141,1.365246 q 0.21166,0 0.43391,-0.03175 0.22225,-0.04233 0.35983,-0.08467 v 0.709081 q -0.14816,0.07408 -0.42333,0.116417 -0.27516,0.05292 -0.52916,0.05292 -0.4445,0 -0.8255,-0.148166 -0.37042,-0.158749 -0.60325,-0.539748 -0.23283,-0.380999 -0.23283,-1.068914 v -3.301989 h -0.80433 v -0.444499 l 0.81491,-0.370415 0.37042,-1.206496 h 0.55033 v 1.301746 h 1.64041 v 0.719664 h -1.64041 v 3.280823 q 0,0.518582 0.24341,0.772581 0.254,0.243416 0.64559,0.243415 z m 4.1169,-5.122317 q 0.73025,0 1.24883,0.317499 0.52916,0.317499 0.80433,0.89958 0.28575,0.571498 0.28575,1.344079 v 0.560915 h -3.88407 q 0.0212,0.96308 0.48683,1.471079 0.47625,0.497415 1.32291,0.497415 0.53975,0 0.9525,-0.09525 0.42333,-0.105833 0.86783,-0.296332 v 0.814914 q -0.43392,0.190499 -0.85725,0.275166 -0.42333,0.09525 -1.00541,0.09525 -0.80433,0 -1.42875,-0.328082 -0.61383,-0.328082 -0.96308,-0.973664 -0.33866,-0.656164 -0.33866,-1.598078 0,-0.93133 0.30691,-1.598078 0.3175,-0.666748 0.87842,-1.02658 0.5715,-0.359832 1.32291,-0.359833 z m -0.0106,0.761997 q -0.66675,0 -1.05833,0.433915 -0.381,0.423332 -0.45509,1.18533 h 2.88925 q -0.0106,-0.719664 -0.33867,-1.164163 -0.32808,-0.455082 -1.03716,-0.455082 z m 5.93721,-0.751414 q 1.03716,0 1.53458,0.455082 0.49741,0.455082 0.49741,1.449912 v 3.862904 h -0.67733 l -0.17991,-0.804331 h -0.0423 q -0.37041,0.465666 -0.78316,0.687915 -0.40217,0.222249 -1.12183,0.222249 -0.77258,0 -1.28058,-0.402165 -0.508,-0.412749 -0.508,-1.280579 0,-0.846664 0.66675,-1.301746 0.66675,-0.465665 2.05316,-0.507999 l 0.96308,-0.03175 v -0.338665 q 0,-0.709081 -0.30692,-0.984247 -0.30691,-0.275166 -0.86783,-0.275166 -0.44449,0 -0.84666,0.137583 -0.40217,0.127 -0.75141,0.296332 l -0.28575,-0.698497 q 0.37041,-0.201083 0.87841,-0.338666 0.508,-0.148166 1.05833,-0.148166 z m 0.27517,3.026824 q -1.05833,0.04233 -1.47108,0.338665 -0.40217,0.296333 -0.40217,0.836081 0,0.476248 0.28575,0.698498 0.29633,0.222249 0.75142,0.222249 0.71966,0 1.19591,-0.391582 0.47625,-0.402166 0.47625,-1.227663 v -0.507998 z m 9.73664,-3.037407 q 0.96308,0 1.43933,0.497415 0.47625,0.486831 0.47625,1.587495 v 3.693571 h -0.92075 v -3.651238 q 0,-1.344079 -1.15358,-1.344079 -0.8255,0 -1.18533,0.476248 -0.34925,0.476249 -0.34925,1.386413 v 3.132656 h -0.92074 v -3.651238 q 0,-1.344079 -1.16417,-1.344079 -0.85724,0 -1.18533,0.529165 -0.32808,0.529165 -0.32808,1.523995 v 2.942157 h -0.93133 v -5.672648 h 0.75142 l 0.13758,0.772581 h 0.0529 q 0.26459,-0.444499 0.70909,-0.656165 0.45508,-0.222249 0.96308,-0.222249 1.33349,0 1.73566,0.952497 h 0.0529 q 0.28575,-0.486832 0.77258,-0.719665 0.49742,-0.232832 1.04775,-0.232832 z m 7.33423,2.571741 q -0.13758,-0.433915 -0.24342,-0.846664 -0.0953,-0.423332 -0.14816,-0.656164 h -0.0423 q -0.0423,0.232832 -0.13758,0.656164 -0.0953,0.412749 -0.24342,0.857248 l -1.01599,3.185573 h -1.05833 l -1.55575,-5.672649 h 0.96308 l 0.78317,3.026824 q 0.11641,0.455082 0.22225,0.920747 0.10583,0.465665 0.14816,0.772581 h 0.0423 q 0.0423,-0.179916 0.0953,-0.444499 0.0635,-0.264582 0.13758,-0.550331 0.0741,-0.296333 0.14816,-0.529165 l 1.00542,-3.196157 h 1.01599 l 0.97367,3.196157 q 0.11641,0.359832 0.22225,0.783164 0.11641,0.423332 0.15875,0.730248 h 0.0423 q 0.0318,-0.264583 0.13758,-0.730248 0.11642,-0.465665 0.24342,-0.952497 l 0.79375,-3.026824 h 0.95249 l -1.57691,5.672649 h -1.09008 z m 9.58846,0.359833 q 0,1.407578 -0.71966,2.180159 -0.70908,0.772581 -1.92616,0.772581 -0.75142,0 -1.34408,-0.338665 -0.58208,-0.349249 -0.92075,-1.005414 -0.33867,-0.666748 -0.33867,-1.608661 0,-1.407579 0.70909,-2.169577 0.70908,-0.761997 1.92616,-0.761997 0.77258,0 1.35466,0.349249 0.59266,0.338665 0.92075,0.99483 0.33866,0.645581 0.33866,1.587495 z m -4.28624,0 q 0,1.005413 0.39159,1.598078 0.40216,0.582081 1.26999,0.582081 0.85725,0 1.25942,-0.582081 0.40216,-0.592665 0.40216,-1.598078 0,-1.005414 -0.40216,-1.576912 -0.40217,-0.571498 -1.27,-0.571498 -0.86783,0 -1.25941,0.571498 -0.39159,0.571498 -0.39159,1.576912 z m 8.40314,-2.931574 q 0.15875,0 0.33867,0.02117 0.1905,0.01058 0.32808,0.04233 l -0.11642,0.857248 q -0.13758,-0.03175 -0.30691,-0.05292 -0.15875,-0.02117 -0.30692,-0.02117 -0.43391,0 -0.81491,0.243415 -0.381,0.232833 -0.61383,0.666748 -0.22225,0.423332 -0.22225,0.994831 v 3.026823 h -0.93133 v -5.672648 h 0.76199 l 0.10584,1.037163 h 0.0423 q 0.27517,-0.465665 0.70908,-0.804331 0.43392,-0.338665 1.02658,-0.338665 z m 2.64582,1.936743 q 0,0.169333 -0.0212,0.444499 -0.0106,0.275166 -0.0212,0.476249 h 0.0423 q 0.0635,-0.08467 0.1905,-0.243416 0.127,-0.15875 0.254,-0.317499 0.13758,-0.169333 0.23283,-0.275166 l 1.80974,-1.915577 h 1.09008 l -2.29657,2.423575 2.45532,3.249073 h -1.12183 l -1.96849,-2.645825 -0.64558,0.560915 v 2.08491 h -0.92075 v -8.043307 h 0.92075 z m 8.42431,2.27541 q 0,0.825497 -0.61383,1.248829 -0.61383,0.423332 -1.65099,0.423332 -0.59267,0 -1.02658,-0.09525 -0.42334,-0.09525 -0.75142,-0.264583 v -0.846664 q 0.33867,0.169333 0.81492,0.317499 0.48683,0.137583 0.98424,0.137583 0.70908,0 1.02658,-0.222249 0.3175,-0.232833 0.3175,-0.613832 0,-0.211666 -0.11641,-0.380999 -0.11642,-0.169332 -0.42334,-0.338665 -0.29633,-0.169333 -0.85724,-0.380999 -0.55034,-0.211666 -0.94192,-0.423332 -0.39158,-0.211666 -0.60325,-0.507998 -0.21166,-0.296333 -0.21166,-0.761998 0,-0.719664 0.58208,-1.111246 0.59266,-0.391582 1.54516,-0.391582 0.51858,0 0.96308,0.105833 0.45508,0.09525 0.84667,0.275165 l -0.3175,0.740831 q -0.35984,-0.148166 -0.75142,-0.253999 -0.39158,-0.105833 -0.80433,-0.105833 -0.5715,0 -0.87841,0.1905 -0.29633,0.179916 -0.29633,0.497415 0,0.232832 0.13758,0.402165 0.13758,0.15875 0.45508,0.317499 0.32808,0.148166 0.86783,0.359832 0.53975,0.201083 0.92075,0.412749 0.381,0.211666 0.58208,0.518582 0.20108,0.296332 0.20108,0.751414 z"
       id="text4"
       aria-label="OpenSteamworks.Client + OpenSteamworks" />
    <g
       id="g1"
       transform="translate(-91.954972,-82.539083)">
      <path
         id="rect3-7"
         style="fill:#cccccc;fill-opacity:1;stroke-width:6.35;stroke-linecap:round;stroke-linejoin:round;stroke-opacity:0.4;paint-order:stroke markers fill"
         d="m 141.43687,97.05371 c -1.96961,0 -3.55534,1.585215 -3.55534,3.55482 v 43.60715 a 12.776985,12.776985 0 0 0 -3.82974,9.07646 12.776985,12.776985 0 0 0 12.77648,12.77699 12.776985,12.776985 0 0 0 12.777,-12.77699 12.776985,12.776985 0 0 0 -3.82974,-9.11832 v -43.56529 c 0,-1.969605 -1.58573,-3.55482 -3.55534,-3.55482 z m 5.3914,49.88842 a 6.3499999,6.3499999 0 0 1 6.35,6.35001 6.3499999,6.3499999 0 0 1 -6.35,6.34999 6.3499999,6.3499999 0 0 1 -6.35,-6.34999 6.3499999,6.3499999 0 0 1 6.35,-6.35001 z" />
      <path
         id="rect3-2"
         style="fill:#000000;fill-opacity:0.2;stroke-width:6.35;stroke-linecap:round;stroke-linejoin:round;stroke-opacity:0.4;paint-order:stroke markers fill"
         d="m 142.0963,98.918235 c -1.53416,0 -2.24014,0.705582 -2.24014,2.239735 v 41.82788 c 1.85868,-1.82908 5.17874,-2.38422 6.96875,-2.38422 1.79001,0 5.11546,0.55312 6.97599,2.38382 l -0.007,-0.008 v -41.81908 c 0,-1.534153 -0.70598,-2.239735 -2.24014,-2.239735 z"
         sodipodi:nodetypes="ssczccsss" />
      <path
         id="rect1-3"
         style="fill:url(#linearGradient12);stroke-width:6.35;stroke-linecap:round;stroke-linejoin:round;stroke-opacity:0.4;paint-order:stroke markers fill"
         d="m 117.37322,149.61897 c -2.59514,0 -4.68447,2.08932 -4.68447,4.68446 v 4.6514 h 1.87172 c 1.96961,0 3.55534,1.58521 3.55534,3.55482 0,1.9696 -1.58573,3.55534 -3.55534,3.55534 h -1.87172 v 6.93497 h 1.87172 c 1.96961,0 3.55534,1.58522 3.55534,3.55483 0,1.9696 -1.58573,3.55533 -3.55534,3.55533 h -1.87172 v 6.93498 h 1.87172 c 1.96961,0 3.55534,1.58573 3.55534,3.55534 0,1.9696 -1.58573,3.55482 -3.55534,3.55482 h -1.87172 v 4.65139 c 0,2.59514 2.08933,4.68447 4.68447,4.68447 h 58.91062 c 2.59514,0 4.68447,-2.08932 4.68447,-4.68447 v -4.65139 h -1.87121 c -1.9696,0 -3.55534,-1.58522 -3.55534,-3.55482 0,-1.96961 1.58574,-3.55534 3.55534,-3.55534 h 1.87121 v -6.93498 h -1.87121 c -1.9696,0 -3.55534,-1.58573 -3.55534,-3.55533 0,-1.96961 1.58574,-3.55483 3.55534,-3.55483 h 1.87121 v -6.93497 h -1.87121 c -1.9696,0 -3.55534,-1.58574 -3.55534,-3.55534 0,-1.96961 1.58574,-3.55482 3.55534,-3.55482 h 1.87121 v -4.6514 c 0,-2.59514 -2.08933,-4.68446 -4.68447,-4.68446 z" />
      <path
         id="rect3-5-3-6"
         style="opacity:0.4;fill:url(#linearGradient4-5);stroke-width:6.35;stroke-linecap:round;stroke-linejoin:round;stroke-opacity:0.4;paint-order:stroke markers fill"
         d="m 114.56047,158.95897 c 1.96961,0 3.55534,1.58522 3.55534,3.55482 0,1.96961 -1.58573,3.55534 -3.55534,3.55534 h 64.53612 c -1.96961,0 -3.55534,-1.58573 -3.55534,-3.55534 0,-1.9696 1.58573,-3.55482 3.55534,-3.55482 z"
         sodipodi:nodetypes="csccscc" />
      <path
         id="rect3-5-3-6-8"
         style="opacity:0.4;fill:url(#linearGradient6);stroke-width:6.35;stroke-linecap:round;stroke-linejoin:round;stroke-opacity:0.4;paint-order:stroke markers fill"
         d="m 114.56047,172.99996 c 1.96961,0 3.55534,1.58522 3.55534,3.55482 0,1.96961 -1.58573,3.55534 -3.55534,3.55534 h 64.53612 c -1.96961,0 -3.55534,-1.58573 -3.55534,-3.55534 0,-1.9696 1.58573,-3.55482 3.55534,-3.55482 z"
         sodipodi:nodetypes="csccscc" />
      <path
         id="rect3-5-3-6-8-0"
         style="opacity:0.4;fill:url(#linearGradient7-2);stroke-width:6.35;stroke-linecap:round;stroke-linejoin:round;stroke-opacity:0.4;paint-order:stroke markers fill"
         d="m 114.56047,187.04562 c 1.96961,0 3.55534,1.58522 3.55534,3.55482 0,1.96961 -1.58573,3.55534 -3.55534,3.55534 h 64.53612 c -1.96961,0 -3.55534,-1.58573 -3.55534,-3.55534 0,-1.9696 1.58573,-3.55482 3.55534,-3.55482 z"
         sodipodi:nodetypes="csccscc" />
      <path
         id="rect4-6"
         style="fill:url(#linearGradient9);stroke-width:6.35;stroke-linecap:round;stroke-linejoin:round;stroke-opacity:0.4;paint-order:stroke markers fill"
         d="m 117.36444,138.47546 c -2.59021,0 -4.67569,2.08547 -4.67569,4.67568 v 10.70994 c 0,2.59021 2.08548,4.67568 4.67569,4.67568 h 58.92818 c 2.59021,0 4.67569,-2.08547 4.67569,-4.67568 v -10.70994 c 0,-2.59021 -2.08548,-4.67568 -4.67569,-4.67568 h -4.34185 c -1.81915,1.89311 -4.31837,10.79986 -6.73034,10.79986 h -36.78432 c -2.61023,0 -5.16008,-8.65081 -6.72982,-10.79986 z"
         sodipodi:nodetypes="sssssssscsscs" />
    </g>
  </g>
</svg>
