<?xml version="1.0" encoding="UTF-8" standalone="no"?>
<!-- Created with Inkscape (http://www.inkscape.org/) -->

<svg
   width="1920"
   height="512"
   viewBox="0 0 507.99997 135.46667"
   version="1.1"
   id="svg5"
   inkscape:version="1.3 (0e150ed6c4, 2023-07-21)"
   sodipodi:docname="doc-header-silver-font-curves.svg"
   inkscape:export-filename="doc-header-silver-1920x512.png"
   inkscape:export-xdpi="96"
   inkscape:export-ydpi="96"
   xmlns:inkscape="http://www.inkscape.org/namespaces/inkscape"
   xmlns:sodipodi="http://sodipodi.sourceforge.net/DTD/sodipodi-0.dtd"
   xmlns:xlink="http://www.w3.org/1999/xlink"
   xmlns="http://www.w3.org/2000/svg"
   xmlns:svg="http://www.w3.org/2000/svg">
  <sodipodi:namedview
     id="namedview7"
     pagecolor="#292929"
     bordercolor="#666666"
     borderopacity="1"
     inkscape:showpageshadow="0"
     inkscape:pageopacity="0"
     inkscape:pagecheckerboard="1"
     inkscape:deskcolor="#1a1a1a"
     inkscape:document-units="px"
     showgrid="false"
     inkscape:zoom="0.65186405"
     inkscape:cx="1042.3953"
     inkscape:cy="464.82085"
     inkscape:window-width="3256"
     inkscape:window-height="1080"
     inkscape:window-x="1864"
     inkscape:window-y="0"
     inkscape:window-maximized="0"
     inkscape:current-layer="layer1" />
  <defs
     id="defs2">
    <linearGradient
       id="linearGradient2"
       inkscape:collect="always">
      <stop
         style="stop-color:#cccccc;stop-opacity:1;"
         offset="0"
         id="stop3" />
      <stop
         style="stop-color:#ffffff;stop-opacity:1;"
         offset="1"
         id="stop4" />
    </linearGradient>
    <linearGradient
       id="linearGradient1"
       inkscape:collect="always">
      <stop
         style="stop-color:#ff0000;stop-opacity:1;"
         offset="0"
         id="stop1" />
      <stop
         style="stop-color:#7b0000;stop-opacity:1;"
         offset="1"
         id="stop2" />
    </linearGradient>
    <linearGradient
       inkscape:collect="always"
       xlink:href="#linearGradient1"
       id="linearGradient7"
       x1="-40.367641"
       y1="135.46667"
       x2="-40.367641"
       y2="7.040176e-09"
       gradientUnits="userSpaceOnUse"
       gradientTransform="matrix(0.8796,0,0,1,279.63925,-5.2427174e-6)" />
    <linearGradient
       inkscape:collect="always"
       xlink:href="#linearGradient2"
       id="linearGradient4"
       x1="270.25449"
       y1="95.736832"
       x2="270.25449"
       y2="39.317081"
       gradientUnits="userSpaceOnUse" />
    <linearGradient
       id="linearGradient8"
       inkscape:collect="always">
      <stop
         style="stop-color:#999999;stop-opacity:1;"
         offset="0"
         id="stop8" />
      <stop
         style="stop-color:#ffffff;stop-opacity:1;"
         offset="0.49739641"
         id="stop10" />
      <stop
         style="stop-color:#999999;stop-opacity:1;"
         offset="1"
         id="stop9" />
    </linearGradient>
    <linearGradient
       id="linearGradient3"
       inkscape:collect="always">
      <stop
         style="stop-color:#000000;stop-opacity:1;"
         offset="0"
         id="stop3-9" />
      <stop
         style="stop-color:#333333;stop-opacity:1;"
         offset="0.49069679"
         id="stop5" />
      <stop
         style="stop-color:#000000;stop-opacity:1;"
         offset="1"
         id="stop4-2" />
    </linearGradient>
    <linearGradient
       inkscape:collect="always"
       xlink:href="#linearGradient8"
       id="linearGradient14"
       x1="33.593552"
       y1="65.967026"
       x2="101.87311"
       y2="65.967026"
       gradientUnits="userSpaceOnUse" />
    <linearGradient
       inkscape:collect="always"
       xlink:href="#linearGradient24"
       id="linearGradient26"
       x1="-140.94643"
       y1="60.394756"
       x2="-140.94643"
       y2="76.725929"
       gradientUnits="userSpaceOnUse"
       gradientTransform="translate(282.73818,73.715811)" />
    <linearGradient
       id="linearGradient24"
       inkscape:collect="always">
      <stop
         style="stop-color:#cccccc;stop-opacity:0;"
         offset="0"
         id="stop25" />
      <stop
         style="stop-color:#000000;stop-opacity:1;"
         offset="1"
         id="stop26" />
    </linearGradient>
    <linearGradient
       inkscape:collect="always"
       xlink:href="#linearGradient15"
       id="linearGradient16"
       x1="67.729713"
       y1="16.379362"
       x2="67.729713"
       y2="60.162216"
       gradientUnits="userSpaceOnUse"
       gradientTransform="translate(74.058679,76.205578)" />
    <linearGradient
       id="linearGradient15"
       inkscape:collect="always">
      <stop
         style="stop-color:#999999;stop-opacity:1;"
         offset="0"
         id="stop16" />
      <stop
         style="stop-color:#8b8b8b;stop-opacity:1;"
         offset="1"
         id="stop15" />
    </linearGradient>
    <mask
       maskUnits="userSpaceOnUse"
       id="mask18">
      <path
         style="color:#000000;fill:#7bff00;stroke-width:0.999998;stroke-linecap:round;stroke-linejoin:round;-inkscape-stroke:none;paint-order:stroke markers fill"
         d="m -77.663989,14.816667 c -1.534157,0 -2.240174,0.705503 -2.240174,2.239655 v 41.5432 a 12.776985,12.776985 0 0 1 4.386813,-1.808157 c 0.07044,-0.01492 0.138469,-0.0277 0.208256,-0.04134 a 12.776985,12.776985 0 0 1 1.085723,-0.165364 c 0.473519,-0.05362 0.918316,-0.08475 1.287777,-0.08475 a 12.776985,12.776985 0 0 1 6.968567,2.071709 V 17.056322 c 0,-1.534152 -0.706017,-2.239655 -2.240174,-2.239655 z"
         id="path19" />
    </mask>
    <filter
       inkscape:collect="always"
       style="color-interpolation-filters:sRGB"
       id="filter19"
       x="-0.034475621"
       y="-0.011529406"
       width="1.0689512"
       height="1.0230588">
      <feGaussianBlur
         inkscape:collect="always"
         stdDeviation="0.21541652"
         id="feGaussianBlur19" />
    </filter>
    <linearGradient
       inkscape:collect="always"
       xlink:href="#linearGradient21"
       id="linearGradient12-9"
       x1="33.593552"
       y1="94.015961"
       x2="101.87311"
       y2="94.015961"
       gradientUnits="userSpaceOnUse"
       gradientTransform="translate(74.058679,76.205578)" />
    <linearGradient
       id="linearGradient21"
       inkscape:collect="always">
      <stop
         style="stop-color:#666666;stop-opacity:1;"
         offset="0"
         id="stop19" />
      <stop
         style="stop-color:#ffffff;stop-opacity:1;"
         offset="0.49739641"
         id="stop20" />
      <stop
         style="stop-color:#666666;stop-opacity:1;"
         offset="1"
         id="stop21" />
    </linearGradient>
    <mask
       maskUnits="userSpaceOnUse"
       id="mask13">
      <path
         style="color:#000000;display:inline;fill:url(#linearGradient14-4);stroke-width:0.999998;stroke-linecap:round;stroke-linejoin:round;-inkscape-stroke:none;paint-order:stroke markers fill"
         d="m -100.09932,64.29375 c -2.5902,0 -4.67568,2.085475 -4.67568,4.675685 v 10.709939 c 0,0.07467 0.008,0.147386 0.0114,0.221176 -0.003,0.07385 -0.0114,0.146446 -0.0114,0.221173 v 4.651396 h 1.87172 c 1.96961,0 3.55534,1.585219 3.55534,3.554822 0,1.969604 -1.58573,3.555339 -3.55534,3.555339 h -1.87172 v 6.934978 h 1.87172 c 1.96961,0 3.55534,1.585212 3.55534,3.554822 0,1.9696 -1.58573,3.55534 -3.55534,3.55534 h -1.87172 v 6.93497 h 1.87172 c 1.96961,0 3.55534,1.58573 3.55534,3.55534 0,1.9696 -1.58573,3.55482 -3.55534,3.55482 h -1.87172 v 4.6514 c 0,2.59513 2.08933,4.68446 4.68447,4.68446 h 58.910614 c 2.595141,0 4.684469,-2.08931 4.684469,-4.68446 v -4.6514 h -1.871202 c -1.969601,0 -3.555339,-1.58522 -3.555339,-3.55482 0,-1.96961 1.585738,-3.55534 3.555339,-3.55534 h 1.871202 v -6.93497 h -1.871202 c -1.969601,0 -3.555339,-1.58574 -3.555339,-3.55534 0,-1.96961 1.585738,-3.554822 3.555339,-3.554822 h 1.871202 V 91.88328 h -1.871202 c -1.969601,0 -3.555339,-1.585735 -3.555339,-3.555339 0,-1.969603 1.585738,-3.554822 3.555339,-3.554822 h 1.871202 v -4.651396 c 0,-0.07473 -0.0079,-0.147323 -0.01138,-0.221173 0.0034,-0.07379 0.01138,-0.146508 0.01138,-0.221176 V 68.969435 c 0,-2.59021 -2.085475,-4.675685 -4.675683,-4.675685 h -4.341854 c -1.819143,1.893107 -4.318373,10.799858 -6.730339,10.799858 h -36.784316 c -2.610229,0 -5.160084,-8.650814 -6.729823,-10.799858 z"
         id="path14" />
    </mask>
    <linearGradient
       inkscape:collect="always"
       xlink:href="#linearGradient8"
       id="linearGradient14-4"
       gradientUnits="userSpaceOnUse"
       gradientTransform="translate(-138.36855,8.3573751)"
       x1="33.593552"
       y1="94.015961"
       x2="101.87311"
       y2="94.015961" />
    <filter
       inkscape:collect="always"
       style="color-interpolation-filters:sRGB"
       id="filter14"
       x="-0.01687336"
       y="-0.017706723"
       width="1.0337467"
       height="1.0354134">
      <feGaussianBlur
         inkscape:collect="always"
         stdDeviation="0.48748467"
         id="feGaussianBlur14" />
    </filter>
    <linearGradient
       inkscape:collect="always"
       xlink:href="#linearGradient22"
       id="linearGradient23"
       x1="51.331558"
       y1="93.84388"
       x2="84.135101"
       y2="93.84388"
       gradientUnits="userSpaceOnUse"
       gradientTransform="translate(74.058679,76.205578)" />
    <linearGradient
       id="linearGradient22"
       inkscape:collect="always">
      <stop
         style="stop-color:#ffffff;stop-opacity:0;"
         offset="0"
         id="stop22" />
      <stop
         style="stop-color:#cccccc;stop-opacity:1;"
         offset="0.49312955"
         id="stop24" />
      <stop
         style="stop-color:#ffffff;stop-opacity:0;"
         offset="1"
         id="stop23" />
    </linearGradient>
    <linearGradient
       inkscape:collect="always"
       xlink:href="#linearGradient3"
       id="linearGradient4-50"
       x1="-86.000687"
       y1="26.722916"
       x2="-86.000687"
       y2="33.833076"
       gradientUnits="userSpaceOnUse"
       gradientTransform="translate(227.7927,125.90255)" />
    <linearGradient
       inkscape:collect="always"
       xlink:href="#linearGradient3"
       id="linearGradient6-0"
       gradientUnits="userSpaceOnUse"
       gradientTransform="translate(227.7927,139.94354)"
       x1="-86.000687"
       y1="26.722916"
       x2="-86.000687"
       y2="33.833076" />
    <linearGradient
       id="linearGradient7-6"
       inkscape:collect="always"
       gradientTransform="matrix(3.0127406,0,0,0.3319237,74.058679,76.205578)"
       x1="11.771764"
       y1="314.8511"
       x2="33.192831"
       y2="314.8511"
       gradientUnits="userSpaceOnUse">
      <stop
         style="stop-color:#000000;stop-opacity:1;"
         offset="0"
         id="stop1-3" />
      <stop
         style="stop-color:#333333;stop-opacity:1;"
         offset="0.49069679"
         id="stop2-2" />
      <stop
         style="stop-color:#000000;stop-opacity:1;"
         offset="1"
         id="stop6-0" />
    </linearGradient>
    <linearGradient
       inkscape:collect="always"
       xlink:href="#linearGradient3"
       id="linearGradient9-6"
       gradientUnits="userSpaceOnUse"
       gradientTransform="translate(153.73402,77.783624)"
       x1="-86.000687"
       y1="26.722916"
       x2="-86.000687"
       y2="33.833076" />
  </defs>
  <g
     inkscape:label="Layer 1"
     inkscape:groupmode="layer"
     id="layer1">
    <rect
       style="fill:url(#linearGradient7);stroke-width:6.35;stroke-linecap:round;stroke-linejoin:round;stroke-opacity:0.4;paint-order:stroke markers fill"
       id="rect5"
       width="508"
       height="135.46667"
       x="-4.3750006e-06"
       y="-5.2356772e-06"
       rx="0"
       ry="0"
       inkscape:label="header"
       inkscape:export-filename="doc-header-1024x273.png"
       inkscape:export-xdpi="51.200001"
       inkscape:export-ydpi="51.200001" />
    <path
       style="font-weight:900;font-size:63.5px;line-height:1.25;font-family:'TASA Orbiter Display';-inkscape-font-specification:'TASA Orbiter Display, Heavy';stroke-width:0.264583;fill:url(#linearGradient4)"
       d="m 163.12469,83.76708 c 12.065,0 21.336,-8.382 21.336,-22.225 0,-13.843 -9.271,-22.225 -21.336,-22.225 -12.065,0 -21.336,8.382 -21.336,22.225 0,13.843 9.271,22.225 21.336,22.225 z m -10.795,-21.59 v -1.27 c 0,-7.4295 4.2545,-12.192 10.795,-12.192 6.5405,0 10.795,4.7625 10.795,12.192 v 1.27 c 0,7.4295 -4.2545,12.192 -10.795,12.192 -6.5405,0 -10.795,-4.7625 -10.795,-12.192 z m 35.6235,33.655 h 10.16 v -17.399 c 1.9685,3.302 5.3975,5.334 9.5885,5.334 6.604,0 12.7635,-5.08 12.7635,-16.51 0,-11.43 -6.1595,-16.51 -12.7635,-16.51 -4.3815,0 -8.001,2.286 -9.906,5.842 v -5.207 h -9.8425 z m 10.16,-27.305 v -2.413 c 0,-5.0165 2.2225,-7.9375 5.842,-7.9375 3.7465,0 5.969,3.048 5.969,8.5725 v 1.143 c 0,5.08 -2.2225,7.9375 -5.969,7.9375 -3.6195,0 -5.842,-2.7305 -5.842,-7.3025 z m 42.29095,15.24 c 8.255,0 13.843,-4.2545 14.9225,-10.668 h -9.525 c -0.635,1.8415 -2.54,3.2385 -5.3975,3.2385 -4.1275,0 -6.35,-2.9845 -6.35,-6.223 v -0.5715 h 21.6535 v -2.286 c 0,-10.6045 -6.477,-16.51 -15.8115,-16.51 -9.271,0 -16.383,5.715 -16.383,16.51 0,10.795 7.3025,16.51 16.891,16.51 z m -6.35,-20.32 c 0.254,-3.175 2.413,-5.2705 5.842,-5.2705 3.6195,0 5.5245,2.3495 5.5245,5.2705 z m 25.27296,19.685 h 10.16 v -17.4625 c 0,-4.6355 2.032,-6.604 5.3975,-6.604 3.175,0 4.8895,1.778 4.8895,5.0165 v 19.05 h 10.16 v -20.447 c 0,-8.382 -4.826,-11.938 -10.6045,-11.938 -5.334,0 -8.382,3.1115 -10.16,6.731 v -6.096 h -9.8425 z m 57.72144,-17.3355 5.9055,1.0795 c 3.81,0.6985 5.207,2.159 5.207,4.1275 0,2.54 -2.3495,4.064 -6.35,4.064 -5.842,0 -7.874,-3.302 -7.9375,-6.858 h -10.414 c 0.5715,8.128 5.334,15.5575 17.9705,15.5575 10.0965,0 17.145,-4.7625 17.145,-13.6525 0,-7.239 -4.572,-11.43 -13.081,-12.954 l -5.969,-1.0795 c -3.81,-0.6985 -5.207,-1.9685 -5.207,-3.937 0,-2.54 2.3495,-4.1275 6.35,-4.1275 5.842,0 7.8105,3.302 7.9375,6.858 h 10.414 c -0.5715,-8.128 -5.334,-15.5575 -17.9705,-15.5575 -10.0965,0 -17.145,4.7625 -17.145,13.6525 0,7.239 4.699,11.303 13.1445,12.827 z m 35.75053,17.3355 h 6.7945 v -8.509 h -2.667 c -2.032,0 -2.4765,-0.381 -2.4765,-2.3495 v -12.3825 h 5.1435 v -8.509 h -5.1435 v -8.89 l -10.16,1.905 v 6.985 h -3.3655 v 8.509 h 3.3655 v 14.4145 c 0,5.715 2.2225,8.8265 8.509,8.8265 z m 25.527,0.635 c 8.255,0 13.843,-4.2545 14.9225,-10.668 h -9.525 c -0.635,1.8415 -2.54,3.2385 -5.3975,3.2385 -4.1275,0 -6.35,-2.9845 -6.35,-6.223 v -0.5715 h 21.6535 v -2.286 c 0,-10.6045 -6.477,-16.51 -15.8115,-16.51 -9.271,0 -16.383,5.715 -16.383,16.51 0,10.795 7.3025,16.51 16.891,16.51 z m -6.35,-20.32 c 0.254,-3.175 2.413,-5.2705 5.842,-5.2705 3.6195,0 5.5245,2.3495 5.5245,5.2705 z m 34.60747,20.32 c 4.826,0 8.128,-2.0955 9.8425,-5.715 v 5.08 h 9.8425 v -19.3675 c 0,-8.3185 -5.08,-13.0175 -14.224,-13.0175 -8.382,0 -14.478,3.937 -15.24,11.938 h 10.287 c 0.0635,-2.9845 1.778,-4.3815 4.6355,-4.3815 2.7305,0 4.3815,1.27 4.3815,4.191 v 0.127 l -10.3505,2.667 c -4.8895,1.27 -9.0805,4.191 -9.0805,9.7155 0,4.826 3.2385,8.763 9.906,8.763 z m 0.254,-10.0965 c 0,-1.5875 1.0795,-2.921 3.6195,-3.556 l 5.6515,-1.397 v 1.8415 c 0,3.6195 -1.7145,6.223 -5.334,6.223 -2.3495,0 -3.937,-1.143 -3.937,-3.1115 z m 23.74896,9.4615 h 10.16 v -17.4625 c 0,-4.6355 1.9685,-6.604 5.2705,-6.604 3.1115,0 4.7625,1.778 4.7625,5.0165 v 19.05 h 10.16 v -17.4625 c 0,-4.6355 1.9685,-6.604 5.2705,-6.604 3.1115,0 4.7625,1.778 4.7625,5.0165 v 19.05 h 10.16 v -20.447 c 0,-8.382 -4.7625,-11.938 -10.4775,-11.938 -5.3975,0 -8.636,3.2385 -10.414,6.9215 -1.524,-4.826 -5.3975,-6.9215 -9.779,-6.9215 -5.334,0 -8.3185,3.1115 -10.033,6.731 v -6.096 h -9.8425 z"
       id="text3"
       aria-label="Open Steam" />
    <path
       style="font-size:10.5833px;line-height:1.25;display:inline;fill:#ffffff;stroke-width:0.264583"
       d="m 209.29473,94.794919 q 0,1.174746 -0.40216,2.05316 -0.39158,0.867831 -1.16416,1.354662 -0.77258,0.486832 -1.91558,0.486832 -1.17475,0 -1.95791,-0.486832 -0.77258,-0.486831 -1.15358,-1.365245 -0.381,-0.878414 -0.381,-2.05316 0,-1.164163 0.381,-2.031994 0.381,-0.86783 1.15358,-1.354662 0.78316,-0.486832 1.96849,-0.486832 1.13242,0 1.905,0.486832 0.77258,0.476248 1.16416,1.354662 0.40216,0.867831 0.40216,2.042577 z m -5.96898,0 q 0,1.428745 0.60325,2.254243 0.60325,0.814914 1.88383,0.814914 1.29116,0 1.88383,-0.814914 0.59266,-0.825498 0.59266,-2.254243 0,-1.428745 -0.59266,-2.233076 -0.59267,-0.814914 -1.87325,-0.814914 -1.28058,0 -1.89441,0.814914 -0.60325,0.804331 -0.60325,2.233076 z m 10.21289,-1.98966 q 1.04775,0 1.68274,0.730247 0.64558,0.730248 0.64558,2.201327 0,1.449912 -0.64558,2.201326 -0.63499,0.751414 -1.69332,0.751414 -0.65617,0 -1.09008,-0.243416 -0.42334,-0.253999 -0.66675,-0.582081 h -0.0635 q 0.0212,0.179916 0.0423,0.455082 0.0212,0.275166 0.0212,0.476248 v 2.328324 h -0.93133 v -8.212638 h 0.762 l 0.12699,0.772581 h 0.0423 q 0.254,-0.370416 0.66675,-0.624415 0.41274,-0.253999 1.10066,-0.253999 z m -0.16933,0.783164 q -0.86783,0 -1.22767,0.486832 -0.34925,0.486831 -0.37041,1.481662 v 0.179916 q 0,1.047746 0.33866,1.619244 0.34925,0.560915 1.28058,0.560915 0.51858,0 0.84667,-0.285749 0.33866,-0.285749 0.49741,-0.772581 0.16933,-0.497415 0.16933,-1.132413 0,-0.973663 -0.38099,-1.555745 -0.37042,-0.582081 -1.15358,-0.582081 z m 6.17006,-0.783164 q 0.73025,0 1.24883,0.317499 0.52916,0.317499 0.80433,0.89958 0.28575,0.571498 0.28575,1.344079 v 0.560915 h -3.88407 q 0.0212,0.96308 0.48683,1.471079 0.47625,0.497415 1.32291,0.497415 0.53975,0 0.9525,-0.09525 0.42333,-0.105833 0.86783,-0.296332 v 0.814914 q -0.43392,0.190499 -0.85725,0.275166 -0.42333,0.09525 -1.00541,0.09525 -0.80433,0 -1.42875,-0.328082 -0.61383,-0.328082 -0.96308,-0.973664 -0.33866,-0.656164 -0.33866,-1.598078 0,-0.93133 0.30691,-1.598078 0.3175,-0.666748 0.87842,-1.02658 0.57149,-0.359832 1.32291,-0.359833 z m -0.0106,0.761997 q -0.66674,0 -1.05833,0.433915 -0.38099,0.423332 -0.45508,1.18533 h 2.88924 q -0.0106,-0.719664 -0.33866,-1.164163 -0.32808,-0.455082 -1.03717,-0.455082 z m 6.51931,-0.761997 q 1.01599,0 1.53458,0.497415 0.51858,0.486831 0.51858,1.587495 v 3.693571 h -0.92075 v -3.630072 q 0,-1.365245 -1.26999,-1.365245 -0.94192,0 -1.30175,0.529165 -0.35983,0.529165 -0.35983,1.523995 v 2.942157 h -0.93133 v -5.672648 h 0.75141 l 0.13758,0.772581 h 0.0529 q 0.27517,-0.444499 0.762,-0.656165 0.48683,-0.222249 1.02658,-0.222249 z m 8.22322,3.757071 q 0,1.005413 -0.73025,1.566328 -0.73024,0.560915 -1.96849,0.560915 -0.635,0 -1.17475,-0.09525 -0.53974,-0.09525 -0.89958,-0.264583 v -0.910164 q 0.381,0.169333 0.94192,0.306916 0.5715,0.137583 1.17474,0.137583 0.84667,0 1.27,-0.328082 0.43392,-0.328083 0.43392,-0.888998 0,-0.370415 -0.15875,-0.624414 -0.15875,-0.253999 -0.55034,-0.465665 -0.38099,-0.22225 -1.06891,-0.465666 -0.96308,-0.349249 -1.46049,-0.857247 -0.48684,-0.507998 -0.48684,-1.386412 0,-0.603248 0.30692,-1.02658 0.30692,-0.433916 0.84666,-0.666748 0.55034,-0.232833 1.25942,-0.232833 0.62441,0 1.14299,0.116417 0.51858,0.116416 0.94192,0.306915 l -0.29634,0.814914 q -0.39158,-0.169332 -0.85724,-0.285749 -0.45509,-0.116416 -0.9525,-0.116416 -0.70908,0 -1.06891,0.306916 -0.35984,0.296332 -0.35984,0.793747 0,0.380999 0.15875,0.634998 0.15875,0.253999 0.51859,0.455082 0.35983,0.201083 0.97366,0.433915 0.66675,0.243416 1.12183,0.529165 0.46566,0.275166 0.6985,0.666748 0.24341,0.391582 0.24341,0.984248 z m 3.29141,1.365246 q 0.21166,0 0.43391,-0.03175 0.22225,-0.04233 0.35983,-0.08467 v 0.709081 q -0.14816,0.07408 -0.42333,0.116417 -0.27516,0.05292 -0.52916,0.05292 -0.4445,0 -0.8255,-0.148166 -0.37041,-0.158749 -0.60325,-0.539748 -0.23283,-0.380999 -0.23283,-1.068914 v -3.301989 h -0.80433 v -0.444499 l 0.81491,-0.370415 0.37042,-1.206496 h 0.55033 v 1.301746 h 1.64041 v 0.719664 h -1.64041 v 3.280823 q 0,0.518582 0.24342,0.772581 0.254,0.243416 0.64558,0.243415 z m 4.1169,-5.122317 q 0.73025,0 1.24883,0.317499 0.52917,0.317499 0.80433,0.89958 0.28575,0.571498 0.28575,1.344079 v 0.560915 h -3.88407 q 0.0212,0.96308 0.48683,1.471079 0.47625,0.497415 1.32291,0.497415 0.53975,0 0.9525,-0.09525 0.42333,-0.105833 0.86783,-0.296332 v 0.814914 q -0.43391,0.190499 -0.85725,0.275166 -0.42333,0.09525 -1.00541,0.09525 -0.80433,0 -1.42874,-0.328082 -0.61384,-0.328082 -0.96308,-0.973664 -0.33867,-0.656164 -0.33867,-1.598078 0,-0.93133 0.30692,-1.598078 0.31749,-0.666748 0.87841,-1.02658 0.5715,-0.359832 1.32291,-0.359833 z m -0.0106,0.761997 q -0.66675,0 -1.05833,0.433915 -0.381,0.423332 -0.45508,1.18533 h 2.88924 q -0.0106,-0.719664 -0.33867,-1.164163 -0.32808,-0.455082 -1.03716,-0.455082 z m 5.93722,-0.751414 q 1.03716,0 1.53458,0.455082 0.49741,0.455082 0.49741,1.449912 v 3.862904 h -0.67733 l -0.17991,-0.804331 h -0.0423 q -0.37041,0.465666 -0.78316,0.687915 -0.40217,0.222249 -1.12183,0.222249 -0.77258,0 -1.28058,-0.402165 -0.508,-0.412749 -0.508,-1.280579 0,-0.846664 0.66675,-1.301746 0.66675,-0.465665 2.05316,-0.507999 l 0.96308,-0.03175 v -0.338665 q 0,-0.709081 -0.30692,-0.984247 -0.30691,-0.275166 -0.86783,-0.275166 -0.4445,0 -0.84666,0.137583 -0.40217,0.127 -0.75141,0.296332 l -0.28575,-0.698497 q 0.37041,-0.201083 0.87841,-0.338666 0.508,-0.148166 1.05833,-0.148166 z m 0.27517,3.026824 q -1.05833,0.04233 -1.47108,0.338665 -0.40217,0.296333 -0.40217,0.836081 0,0.476248 0.28575,0.698498 0.29633,0.222249 0.75141,0.222249 0.71967,0 1.19592,-0.391582 0.47625,-0.402166 0.47625,-1.227663 v -0.507998 z m 9.73664,-3.037407 q 0.96308,0 1.43933,0.497415 0.47625,0.486831 0.47625,1.587495 v 3.693571 h -0.92075 v -3.651238 q 0,-1.344079 -1.15358,-1.344079 -0.8255,0 -1.18533,0.476248 -0.34925,0.476249 -0.34925,1.386413 V 98.58374 H 255.004 v -3.651238 q 0,-1.344079 -1.16417,-1.344079 -0.85724,0 -1.18533,0.529165 -0.32808,0.529165 -0.32808,1.523995 v 2.942157 h -0.93133 v -5.672648 h 0.75141 l 0.13759,0.772581 h 0.0529 q 0.26459,-0.444499 0.70909,-0.656165 0.45508,-0.222249 0.96308,-0.222249 1.33349,0 1.73566,0.952497 h 0.0529 q 0.28575,-0.486832 0.77258,-0.719665 0.49742,-0.232832 1.04775,-0.232832 z m 7.33422,2.571741 q -0.13758,-0.433915 -0.24342,-0.846664 -0.0952,-0.423332 -0.14816,-0.656164 h -0.0423 q -0.0423,0.232832 -0.13759,0.656164 -0.0952,0.412749 -0.24341,0.857248 l -1.016,3.185573 h -1.05833 l -1.55575,-5.672649 h 0.96308 l 0.78317,3.026824 q 0.11642,0.455082 0.22225,0.920747 0.10583,0.465665 0.14816,0.772581 h 0.0423 q 0.0423,-0.179916 0.0953,-0.444499 0.0635,-0.264582 0.13758,-0.550331 0.0741,-0.296333 0.14817,-0.529165 l 1.00541,-3.196157 h 1.016 l 0.97366,3.196157 q 0.11642,0.359832 0.22225,0.783164 0.11642,0.423332 0.15875,0.730248 h 0.0423 q 0.0317,-0.264583 0.13759,-0.730248 0.11641,-0.465665 0.24341,-0.952497 l 0.79375,-3.026824 h 0.9525 l -1.57692,5.672649 h -1.09008 z m 9.58846,0.359833 q 0,1.407578 -0.71967,2.180159 -0.70908,0.772581 -1.92616,0.772581 -0.75141,0 -1.34408,-0.338665 -0.58208,-0.349249 -0.92074,-1.005414 -0.33867,-0.666748 -0.33867,-1.608661 0,-1.407579 0.70908,-2.169577 0.70908,-0.761997 1.92616,-0.761997 0.77258,0 1.35467,0.349249 0.59266,0.338665 0.92074,0.99483 0.33867,0.645581 0.33867,1.587495 z m -4.28624,0 q 0,1.005413 0.39158,1.598078 0.40217,0.582081 1.27,0.582081 0.85725,0 1.25941,-0.582081 0.40217,-0.592665 0.40217,-1.598078 0,-1.005414 -0.40217,-1.576912 -0.40216,-0.571498 -1.26999,-0.571498 -0.86783,0 -1.25942,0.571498 -0.39158,0.571498 -0.39158,1.576912 z m 8.40314,-2.931574 q 0.15875,0 0.33866,0.02117 0.1905,0.01058 0.32809,0.04233 l -0.11642,0.857248 q -0.13758,-0.03175 -0.30692,-0.05292 -0.15874,-0.02117 -0.30691,-0.02117 -0.43392,0 -0.81491,0.243415 -0.381,0.232833 -0.61384,0.666748 -0.22225,0.423332 -0.22225,0.994831 v 3.026823 h -0.93133 v -5.672648 h 0.762 l 0.10583,1.037163 h 0.0423 q 0.27516,-0.465665 0.70908,-0.804331 0.43391,-0.338665 1.02658,-0.338665 z m 2.64582,1.936743 q 0,0.169333 -0.0212,0.444499 -0.0106,0.275166 -0.0212,0.476249 h 0.0423 q 0.0635,-0.08467 0.1905,-0.243416 0.127,-0.15875 0.254,-0.317499 0.13759,-0.169333 0.23284,-0.275166 l 1.80974,-1.915577 h 1.09008 l -2.29658,2.423575 2.45533,3.249073 h -1.12183 l -1.96849,-2.645825 -0.64559,0.560915 v 2.08491 h -0.92074 v -8.043307 h 0.92074 z m 8.42432,2.27541 q 0,0.825497 -0.61383,1.248829 -0.61383,0.423332 -1.651,0.423332 -0.59266,0 -1.02658,-0.09525 -0.42333,-0.09525 -0.75141,-0.264583 v -0.846664 q 0.33866,0.169333 0.81491,0.317499 0.48683,0.137583 0.98425,0.137583 0.70908,0 1.02658,-0.222249 0.3175,-0.232833 0.3175,-0.613832 0,-0.211666 -0.11642,-0.380999 -0.11642,-0.169332 -0.42333,-0.338665 -0.29633,-0.169333 -0.85725,-0.380999 -0.55033,-0.211666 -0.94191,-0.423332 -0.39158,-0.211666 -0.60325,-0.507998 -0.21167,-0.296333 -0.21167,-0.761998 0,-0.719664 0.58209,-1.111246 0.59266,-0.391582 1.54516,-0.391582 0.51858,0 0.96308,0.105833 0.45508,0.09525 0.84666,0.275165 l -0.3175,0.740831 q -0.35983,-0.148166 -0.75141,-0.253999 -0.39158,-0.105833 -0.80433,-0.105833 -0.5715,0 -0.87842,0.1905 -0.29633,0.179916 -0.29633,0.497415 0,0.232832 0.13758,0.402165 0.13759,0.15875 0.45509,0.317499 0.32808,0.148166 0.86783,0.359832 0.53975,0.201083 0.92074,0.412749 0.381,0.211666 0.58209,0.518582 0.20108,0.296332 0.20108,0.751414 z m 1.23825,0.99483 q 0,-0.391582 0.1905,-0.550332 0.1905,-0.158749 0.45508,-0.158749 0.27517,0 0.46566,0.158749 0.20109,0.15875 0.20109,0.550332 0,0.380999 -0.20109,0.550332 -0.19049,0.169332 -0.46566,0.169332 -0.26458,0 -0.45508,-0.169332 -0.1905,-0.169333 -0.1905,-0.550332 z m 5.81023,-6.25473 q -1.21708,0 -1.91558,0.814914 -0.6985,0.814914 -0.6985,2.233076 0,1.407579 0.64559,2.233076 0.65616,0.814915 1.95791,0.814915 0.49741,0 0.94191,-0.08467 0.4445,-0.08467 0.86783,-0.211666 v 0.825498 q -0.42333,0.158749 -0.87841,0.232832 -0.4445,0.07408 -1.06892,0.07408 -1.15358,0 -1.92616,-0.476248 -0.77258,-0.476249 -1.16416,-1.354663 -0.381,-0.878413 -0.381,-2.063743 0,-1.142996 0.41275,-2.010827 0.42333,-0.878414 1.23825,-1.365246 0.81491,-0.497415 1.97907,-0.497415 1.19592,0 2.08491,0.444499 l -0.381,0.804331 q -0.34924,-0.15875 -0.78316,-0.285749 -0.42333,-0.127 -0.93133,-0.127 z m 4.25449,6.826228 h -0.93134 v -8.043307 h 0.93134 z m 2.2754,-7.799892 q 0.21166,0 0.37041,0.148167 0.16934,0.137582 0.16934,0.444498 0,0.296333 -0.16934,0.444499 -0.15875,0.148166 -0.37041,0.148166 -0.23284,0 -0.39158,-0.148166 -0.15875,-0.148166 -0.15875,-0.444499 0,-0.306916 0.15875,-0.444498 0.15874,-0.148167 0.39158,-0.148167 z m 0.45508,2.127244 v 5.672648 h -0.93133 v -5.672648 z m 3.9899,-0.105833 q 0.73025,0 1.24883,0.317499 0.52917,0.317499 0.80433,0.89958 0.28575,0.571498 0.28575,1.344079 v 0.560915 h -3.88407 q 0.0212,0.96308 0.48683,1.471079 0.47625,0.497415 1.32292,0.497415 0.53974,0 0.95249,-0.09525 0.42333,-0.105833 0.86783,-0.296332 v 0.814914 q -0.43391,0.190499 -0.85724,0.275166 -0.42334,0.09525 -1.00542,0.09525 -0.80433,0 -1.42874,-0.328082 -0.61383,-0.328082 -0.96308,-0.973664 -0.33867,-0.656164 -0.33867,-1.598078 0,-0.93133 0.30692,-1.598078 0.3175,-0.666748 0.87841,-1.02658 0.5715,-0.359832 1.32291,-0.359833 z m -0.0106,0.761997 q -0.66675,0 -1.05833,0.433915 -0.381,0.423332 -0.45508,1.18533 h 2.88924 q -0.0106,-0.719664 -0.33867,-1.164163 -0.32808,-0.455082 -1.03716,-0.455082 z m 6.5193,-0.761997 q 1.016,0 1.53458,0.497415 0.51858,0.486831 0.51858,1.587495 v 3.693571 h -0.92074 v -3.630072 q 0,-1.365245 -1.27,-1.365245 -0.94191,0 -1.30175,0.529165 -0.35983,0.529165 -0.35983,1.523995 v 2.942157 h -0.93133 v -5.672648 h 0.75142 l 0.13758,0.772581 h 0.0529 q 0.27516,-0.444499 0.76199,-0.656165 0.48683,-0.222249 1.02658,-0.222249 z m 5.7044,5.122317 q 0.21166,0 0.43391,-0.03175 0.22225,-0.04233 0.35983,-0.08467 v 0.709081 q -0.14816,0.07408 -0.42333,0.116417 -0.27516,0.05292 -0.52916,0.05292 -0.4445,0 -0.8255,-0.148166 -0.37042,-0.158749 -0.60325,-0.539748 -0.23283,-0.380999 -0.23283,-1.068914 v -3.301989 h -0.80433 v -0.444499 l 0.81491,-0.370415 0.37042,-1.206496 h 0.55033 v 1.301746 h 1.64041 v 0.719664 h -1.64041 v 3.280823 q 0,0.518582 0.24342,0.772581 0.25399,0.243416 0.64558,0.243415 z m 7.17548,-3.450156 h 2.10608 v 0.751414 h -2.10608 v 2.18016 h -0.762 v -2.18016 h -2.10607 V 94.47742 h 2.10607 v -2.190743 h 0.762 z m 13.02806,0.317499 q 0,1.174746 -0.40217,2.05316 -0.39158,0.867831 -1.16416,1.354662 -0.77258,0.486832 -1.91558,0.486832 -1.17475,0 -1.95791,-0.486832 -0.77258,-0.486831 -1.15358,-1.365245 -0.381,-0.878414 -0.381,-2.05316 0,-1.164163 0.381,-2.031994 0.381,-0.86783 1.15358,-1.354662 0.78316,-0.486832 1.96849,-0.486832 1.13242,0 1.905,0.486832 0.77258,0.476248 1.16416,1.354662 0.40217,0.867831 0.40217,2.042577 z m -5.96898,0 q 0,1.428745 0.60324,2.254243 0.60325,0.814914 1.88383,0.814914 1.29116,0 1.88383,-0.814914 0.59266,-0.825498 0.59266,-2.254243 0,-1.428745 -0.59266,-2.233076 -0.59267,-0.814914 -1.87325,-0.814914 -1.28057,0 -1.89441,0.814914 -0.60324,0.804331 -0.60324,2.233076 z m 10.21287,-1.98966 q 1.04775,0 1.68275,0.730247 0.64558,0.730248 0.64558,2.201327 0,1.449912 -0.64558,2.201326 -0.635,0.751414 -1.69333,0.751414 -0.65617,0 -1.09008,-0.243416 -0.42333,-0.253999 -0.66675,-0.582081 h -0.0635 q 0.0212,0.179916 0.0423,0.455082 0.0212,0.275166 0.0212,0.476248 v 2.328324 h -0.93133 v -8.212638 h 0.762 l 0.127,0.772581 h 0.0423 q 0.254,-0.370416 0.66675,-0.624415 0.41275,-0.253999 1.10066,-0.253999 z m -0.16933,0.783164 q -0.86783,0 -1.22766,0.486832 -0.34925,0.486831 -0.37042,1.481662 v 0.179916 q 0,1.047746 0.33867,1.619244 0.34925,0.560915 1.28058,0.560915 0.51858,0 0.84666,-0.285749 0.33866,-0.285749 0.49741,-0.772581 0.16934,-0.497415 0.16934,-1.132413 0,-0.973663 -0.381,-1.555745 -0.37042,-0.582081 -1.15358,-0.582081 z m 6.17006,-0.783164 q 0.73025,0 1.24883,0.317499 0.52917,0.317499 0.80433,0.89958 0.28575,0.571498 0.28575,1.344079 v 0.560915 h -3.88407 q 0.0212,0.96308 0.48683,1.471079 0.47625,0.497415 1.32291,0.497415 0.53975,0 0.9525,-0.09525 0.42333,-0.105833 0.86783,-0.296332 v 0.814914 q -0.43391,0.190499 -0.85725,0.275166 -0.42333,0.09525 -1.00541,0.09525 -0.80433,0 -1.42874,-0.328082 -0.61384,-0.328082 -0.96309,-0.973664 -0.33866,-0.656164 -0.33866,-1.598078 0,-0.93133 0.30691,-1.598078 0.3175,-0.666748 0.87842,-1.02658 0.5715,-0.359832 1.32291,-0.359833 z m -0.0106,0.761997 q -0.66675,0 -1.05833,0.433915 -0.381,0.423332 -0.45508,1.18533 h 2.88924 q -0.0106,-0.719664 -0.33867,-1.164163 -0.32808,-0.455082 -1.03716,-0.455082 z m 6.51931,-0.761997 q 1.016,0 1.53458,0.497415 0.51858,0.486831 0.51858,1.587495 v 3.693571 h -0.92075 v -3.630072 q 0,-1.365245 -1.26999,-1.365245 -0.94192,0 -1.30175,0.529165 -0.35983,0.529165 -0.35983,1.523995 v 2.942157 h -0.93133 v -5.672648 h 0.75141 l 0.13758,0.772581 h 0.0529 q 0.27517,-0.444499 0.762,-0.656165 0.48683,-0.222249 1.02658,-0.222249 z m 8.22322,3.757071 q 0,1.005413 -0.73024,1.566328 -0.73025,0.560915 -1.9685,0.560915 -0.63499,0 -1.17474,-0.09525 -0.53975,-0.09525 -0.89958,-0.264583 v -0.910164 q 0.381,0.169333 0.94191,0.306916 0.5715,0.137583 1.17475,0.137583 0.84666,0 1.26999,-0.328082 0.43392,-0.328083 0.43392,-0.888998 0,-0.370415 -0.15875,-0.624414 -0.15875,-0.253999 -0.55033,-0.465665 -0.381,-0.22225 -1.06892,-0.465666 -0.96308,-0.349249 -1.46049,-0.857247 -0.48683,-0.507998 -0.48683,-1.386412 0,-0.603248 0.30691,-1.02658 0.30692,-0.433916 0.84667,-0.666748 0.55033,-0.232833 1.25941,-0.232833 0.62441,0 1.14299,0.116417 0.51859,0.116416 0.94192,0.306915 l -0.29633,0.814914 q -0.39159,-0.169332 -0.85725,-0.285749 -0.45508,-0.116416 -0.9525,-0.116416 -0.70908,0 -1.06891,0.306916 -0.35983,0.296332 -0.35983,0.793747 0,0.380999 0.15875,0.634998 0.15875,0.253999 0.51858,0.455082 0.35983,0.201083 0.97366,0.433915 0.66675,0.243416 1.12183,0.529165 0.46567,0.275166 0.6985,0.666748 0.24341,0.391582 0.24341,0.984248 z m 3.29141,1.365246 q 0.21166,0 0.43391,-0.03175 0.22225,-0.04233 0.35983,-0.08467 v 0.709081 q -0.14816,0.07408 -0.42333,0.116417 -0.27516,0.05292 -0.52916,0.05292 -0.4445,0 -0.8255,-0.148166 -0.37042,-0.158749 -0.60325,-0.539748 -0.23283,-0.380999 -0.23283,-1.068914 v -3.301989 h -0.80433 v -0.444499 l 0.81491,-0.370415 0.37042,-1.206496 h 0.55033 v 1.301746 h 1.64041 v 0.719664 h -1.64041 v 3.280823 q 0,0.518582 0.24341,0.772581 0.254,0.243416 0.64559,0.243415 z m 4.1169,-5.122317 q 0.73025,0 1.24883,0.317499 0.52916,0.317499 0.80433,0.89958 0.28575,0.571498 0.28575,1.344079 v 0.560915 h -3.88407 q 0.0212,0.96308 0.48683,1.471079 0.47625,0.497415 1.32291,0.497415 0.53975,0 0.9525,-0.09525 0.42333,-0.105833 0.86783,-0.296332 v 0.814914 q -0.43392,0.190499 -0.85725,0.275166 -0.42333,0.09525 -1.00541,0.09525 -0.80433,0 -1.42875,-0.328082 -0.61383,-0.328082 -0.96308,-0.973664 -0.33866,-0.656164 -0.33866,-1.598078 0,-0.93133 0.30691,-1.598078 0.3175,-0.666748 0.87842,-1.02658 0.5715,-0.359832 1.32291,-0.359833 z m -0.0106,0.761997 q -0.66675,0 -1.05833,0.433915 -0.381,0.423332 -0.45509,1.18533 h 2.88925 q -0.0106,-0.719664 -0.33867,-1.164163 -0.32808,-0.455082 -1.03716,-0.455082 z m 5.93721,-0.751414 q 1.03716,0 1.53458,0.455082 0.49741,0.455082 0.49741,1.449912 v 3.862904 h -0.67733 l -0.17991,-0.804331 h -0.0423 q -0.37041,0.465666 -0.78316,0.687915 -0.40217,0.222249 -1.12183,0.222249 -0.77258,0 -1.28058,-0.402165 -0.508,-0.412749 -0.508,-1.280579 0,-0.846664 0.66675,-1.301746 0.66675,-0.465665 2.05316,-0.507999 l 0.96308,-0.03175 v -0.338665 q 0,-0.709081 -0.30692,-0.984247 -0.30691,-0.275166 -0.86783,-0.275166 -0.44449,0 -0.84666,0.137583 -0.40217,0.127 -0.75141,0.296332 l -0.28575,-0.698497 q 0.37041,-0.201083 0.87841,-0.338666 0.508,-0.148166 1.05833,-0.148166 z m 0.27517,3.026824 q -1.05833,0.04233 -1.47108,0.338665 -0.40217,0.296333 -0.40217,0.836081 0,0.476248 0.28575,0.698498 0.29633,0.222249 0.75142,0.222249 0.71966,0 1.19591,-0.391582 0.47625,-0.402166 0.47625,-1.227663 v -0.507998 z m 9.73664,-3.037407 q 0.96308,0 1.43933,0.497415 0.47625,0.486831 0.47625,1.587495 v 3.693571 h -0.92075 v -3.651238 q 0,-1.344079 -1.15358,-1.344079 -0.8255,0 -1.18533,0.476248 -0.34925,0.476249 -0.34925,1.386413 v 3.132656 h -0.92074 v -3.651238 q 0,-1.344079 -1.16417,-1.344079 -0.85724,0 -1.18533,0.529165 -0.32808,0.529165 -0.32808,1.523995 v 2.942157 h -0.93133 v -5.672648 h 0.75142 l 0.13758,0.772581 h 0.0529 q 0.26459,-0.444499 0.70909,-0.656165 0.45508,-0.222249 0.96308,-0.222249 1.33349,0 1.73566,0.952497 h 0.0529 q 0.28575,-0.486832 0.77258,-0.719665 0.49742,-0.232832 1.04775,-0.232832 z m 7.33423,2.571741 q -0.13758,-0.433915 -0.24342,-0.846664 -0.0953,-0.423332 -0.14816,-0.656164 h -0.0423 q -0.0423,0.232832 -0.13758,0.656164 -0.0953,0.412749 -0.24342,0.857248 l -1.01599,3.185573 h -1.05833 l -1.55575,-5.672649 h 0.96308 l 0.78317,3.026824 q 0.11641,0.455082 0.22225,0.920747 0.10583,0.465665 0.14816,0.772581 h 0.0423 q 0.0423,-0.179916 0.0953,-0.444499 0.0635,-0.264582 0.13758,-0.550331 0.0741,-0.296333 0.14816,-0.529165 l 1.00542,-3.196157 h 1.01599 l 0.97367,3.196157 q 0.11641,0.359832 0.22225,0.783164 0.11641,0.423332 0.15875,0.730248 h 0.0423 q 0.0318,-0.264583 0.13758,-0.730248 0.11642,-0.465665 0.24342,-0.952497 l 0.79375,-3.026824 h 0.95249 l -1.57691,5.672649 h -1.09008 z m 9.58846,0.359833 q 0,1.407578 -0.71966,2.180159 -0.70908,0.772581 -1.92616,0.772581 -0.75142,0 -1.34408,-0.338665 -0.58208,-0.349249 -0.92075,-1.005414 -0.33867,-0.666748 -0.33867,-1.608661 0,-1.407579 0.70909,-2.169577 0.70908,-0.761997 1.92616,-0.761997 0.77258,0 1.35466,0.349249 0.59266,0.338665 0.92075,0.99483 0.33866,0.645581 0.33866,1.587495 z m -4.28624,0 q 0,1.005413 0.39159,1.598078 0.40216,0.582081 1.26999,0.582081 0.85725,0 1.25942,-0.582081 0.40216,-0.592665 0.40216,-1.598078 0,-1.005414 -0.40216,-1.576912 -0.40217,-0.571498 -1.27,-0.571498 -0.86783,0 -1.25941,0.571498 -0.39159,0.571498 -0.39159,1.576912 z m 8.40314,-2.931574 q 0.15875,0 0.33867,0.02117 0.1905,0.01058 0.32808,0.04233 l -0.11642,0.857248 q -0.13758,-0.03175 -0.30691,-0.05292 -0.15875,-0.02117 -0.30692,-0.02117 -0.43391,0 -0.81491,0.243415 -0.381,0.232833 -0.61383,0.666748 -0.22225,0.423332 -0.22225,0.994831 v 3.026823 h -0.93133 v -5.672648 h 0.76199 l 0.10584,1.037163 h 0.0423 q 0.27517,-0.465665 0.70908,-0.804331 0.43392,-0.338665 1.02658,-0.338665 z m 2.64582,1.936743 q 0,0.169333 -0.0212,0.444499 -0.0106,0.275166 -0.0212,0.476249 h 0.0423 q 0.0635,-0.08467 0.1905,-0.243416 0.127,-0.15875 0.254,-0.317499 0.13758,-0.169333 0.23283,-0.275166 l 1.80974,-1.915577 h 1.09008 l -2.29657,2.423575 2.45532,3.249073 h -1.12183 l -1.96849,-2.645825 -0.64558,0.560915 v 2.08491 h -0.92075 v -8.043307 h 0.92075 z m 8.42431,2.27541 q 0,0.825497 -0.61383,1.248829 -0.61383,0.423332 -1.65099,0.423332 -0.59267,0 -1.02658,-0.09525 -0.42334,-0.09525 -0.75142,-0.264583 v -0.846664 q 0.33867,0.169333 0.81492,0.317499 0.48683,0.137583 0.98424,0.137583 0.70908,0 1.02658,-0.222249 0.3175,-0.232833 0.3175,-0.613832 0,-0.211666 -0.11641,-0.380999 -0.11642,-0.169332 -0.42334,-0.338665 -0.29633,-0.169333 -0.85724,-0.380999 -0.55034,-0.211666 -0.94192,-0.423332 -0.39158,-0.211666 -0.60325,-0.507998 -0.21166,-0.296333 -0.21166,-0.761998 0,-0.719664 0.58208,-1.111246 0.59266,-0.391582 1.54516,-0.391582 0.51858,0 0.96308,0.105833 0.45508,0.09525 0.84667,0.275165 l -0.3175,0.740831 q -0.35984,-0.148166 -0.75142,-0.253999 -0.39158,-0.105833 -0.80433,-0.105833 -0.5715,0 -0.87841,0.1905 -0.29633,0.179916 -0.29633,0.497415 0,0.232832 0.13758,0.402165 0.13758,0.15875 0.45508,0.317499 0.32808,0.148166 0.86783,0.359832 0.53975,0.201083 0.92075,0.412749 0.381,0.211666 0.58208,0.518582 0.20108,0.296332 0.20108,0.751414 z"
       id="text4"
       aria-label="OpenSteamworks.Client + OpenSteamworks" />
    <g
       id="g2"
       transform="translate(-86.918452,-76.134523)">
      <path
         id="rect3"
         style="fill:#cccccc;fill-opacity:1;stroke-width:6.35;stroke-linecap:round;stroke-linejoin:round;stroke-opacity:0.4;paint-order:stroke markers fill"
         d="m 136.40035,90.720201 c -1.96961,0 -3.55534,1.585215 -3.55534,3.554822 v 43.607147 a 12.776985,12.776985 0 0 0 -3.82974,9.07646 12.776985,12.776985 0 0 0 12.77648,12.777 12.776985,12.776985 0 0 0 12.777,-12.777 12.776985,12.776985 0 0 0 -3.82974,-9.11832 V 94.275023 c 0,-1.969607 -1.58573,-3.554822 -3.55534,-3.554822 z m 5.3914,49.888419 a 6.3499999,6.3499999 0 0 1 6.35,6.35001 6.3499999,6.3499999 0 0 1 -6.35,6.35 6.3499999,6.3499999 0 0 1 -6.35,-6.35 6.3499999,6.3499999 0 0 1 6.35,-6.35001 z" />
      <path
         id="rect3-3"
         style="fill:url(#linearGradient26);stroke-width:6.35;stroke-linecap:round;stroke-linejoin:round;stroke-opacity:0.4;paint-order:stroke markers fill"
         d="m 132.84501,155.96402 c 0,0 -3.81773,-5.66068 -3.82974,-9.07645 -10e-6,-7.05635 5.72014,-12.77672 12.77648,-12.777 7.05655,-1e-5 12.77701,5.72045 12.777,12.777 -8e-4,3.4303 -3.82974,9.11831 -3.82974,9.11831 l -17.894,-0.0419 z m 8.94674,-2.72645 c 3.50701,0 6.35,-2.84299 6.35,-6.35 0,-3.50701 -2.84299,-6.35 -6.35,-6.35 -3.50701,0 -6.35,2.84299 -6.35,6.35 0,3.50701 2.84299,6.35 6.35,6.35 z"
         sodipodi:nodetypes="cccccccsssss" />
      <path
         id="rect3-7-1"
         style="opacity:0.4;fill:#ffffff;fill-opacity:1;stroke-width:6.35;stroke-linecap:round;stroke-linejoin:round;stroke-opacity:0.4;paint-order:stroke markers fill"
         d="m 136.40009,90.720454 c -1.9696,0 -3.55534,1.585219 -3.55534,3.554822 v 0.529167 c 0,-1.969604 1.58574,-3.554822 3.55534,-3.554822 h 10.78332 c 1.96961,0 3.55534,1.585218 3.55534,3.554822 v -0.529167 c 0,-1.969603 -1.58573,-3.554822 -3.55534,-3.554822 z m 5.3883,43.547726 a 12.776985,12.776985 0 0 0 -12.77648,12.777 12.776985,12.776985 0 0 0 0.0269,0.2589 12.776985,12.776985 0 0 1 12.74961,-12.50673 12.776985,12.776985 0 0 1 12.76305,12.38684 12.776985,12.776985 0 0 0 0.014,-0.13901 12.776985,12.776985 0 0 0 -12.777,-12.777 z m -6.31537,13.04158 a 6.3499999,6.3499999 0 0 0 -0.0346,0.26459 6.3499999,6.3499999 0 0 0 6.35,6.35 6.3499999,6.3499999 0 0 0 6.35,-6.35 6.3499999,6.3499999 0 0 0 -0.0129,-0.26459 6.3499999,6.3499999 0 0 1 -6.33708,6.08542 6.3499999,6.3499999 0 0 1 -6.31538,-6.08542 z" />
      <path
         id="rect3-2-5"
         style="fill:url(#linearGradient16);fill-opacity:0.2;stroke-width:6.35;stroke-linecap:round;stroke-linejoin:round;stroke-opacity:0.4;paint-order:stroke markers fill"
         d="m 137.06,92.58494 c -1.53416,0 -2.24017,0.705503 -2.24017,2.239656 V 136.3678 a 12.776985,12.776985 0 0 1 4.38681,-1.80816 c 0.0704,-0.0149 0.13847,-0.0277 0.20826,-0.0413 a 12.776985,12.776985 0 0 1 1.08572,-0.16537 c 0.47352,-0.0536 0.91831,-0.0847 1.28777,-0.0847 a 12.776985,12.776985 0 0 1 6.96857,2.07171 V 94.824596 c 0,-1.534153 -0.70601,-2.239656 -2.24017,-2.239656 z" />
      <path
         style="color:#000000;opacity:0.2;mix-blend-mode:normal;fill:#000000;stroke-linecap:round;stroke-linejoin:round;-inkscape-stroke:none;paint-order:stroke markers fill;filter:url(#filter19)"
         d="m -77.664062,14.287109 c -0.848193,0 -1.572099,0.201179 -2.070313,0.699219 -0.498214,0.49804 -0.699219,1.222063 -0.699219,2.070313 v 41.542968 a 0.52921956,0.52921956 0 0 0 0.81836,0.44336 c 1.2812,-0.835243 2.70744,-1.424236 4.205078,-1.734375 a 0.52921956,0.52921956 0 0 0 0.002,0 c 0.0628,-0.0133 0.128917,-0.02494 0.201172,-0.03906 0.344486,-0.06773 0.691986,-0.120305 1.041015,-0.158203 a 0.52921956,0.52921956 0 0 0 0.002,0 c 0.459459,-0.05203 0.88878,-0.08203 1.228515,-0.08203 2.372019,0.0012 4.692277,0.691464 6.679688,1.986328 A 0.52921956,0.52921956 0 0 0 -65.4375,58.572266 V 17.056641 c 0,-0.848249 -0.201005,-1.572273 -0.699219,-2.070313 -0.498214,-0.49804 -1.222119,-0.699219 -2.070312,-0.699219 z m 0,1.058594 h 9.457031 c 0.685963,0 1.08198,0.152376 1.320312,0.390625 0.238332,0.238249 0.390625,0.634411 0.390625,1.320313 V 57.75 c -1.976188,-1.103205 -4.166207,-1.77818 -6.439453,-1.779297 -0.399184,0 -0.860075,0.03268 -1.347656,0.08789 -0.378543,0.04116 -0.755285,0.09842 -1.128906,0.171875 -0.0668,0.01305 -0.137441,0.02657 -0.214844,0.04297 -1.334859,0.276621 -2.56182,0.880315 -3.748047,1.544922 V 17.056641 c 0,-0.685902 0.152293,-1.082064 0.390625,-1.320313 0.238332,-0.238249 0.634349,-0.390625 1.320313,-0.390625 z"
         id="path17"
         mask="url(#mask18)"
         transform="translate(214.71488,77.733593)" />
      <path
         id="rect1"
         style="fill:url(#linearGradient12-9);stroke-width:6.35;stroke-linecap:round;stroke-linejoin:round;stroke-opacity:0.4;paint-order:stroke markers fill"
         d="m 112.32818,132.1417 c -2.59021,0 -4.6762,2.08547 -4.6762,4.67568 v 10.70994 c 0,0.0747 0.008,0.14739 0.0114,0.22118 -0.003,0.0738 -0.0114,0.14644 -0.0114,0.22117 v 4.6514 h 1.87172 c 1.9696,0 3.55534,1.58522 3.55534,3.55482 0,1.9696 -1.58574,3.55534 -3.55534,3.55534 h -1.87172 v 6.93497 h 1.87172 c 1.9696,0 3.55534,1.58522 3.55534,3.55483 0,1.9696 -1.58574,3.55533 -3.55534,3.55533 h -1.87172 v 6.93498 h 1.87172 c 1.9696,0 3.55534,1.58573 3.55534,3.55534 0,1.9696 -1.58574,3.55482 -3.55534,3.55482 h -1.87172 v 4.6514 c 0,2.59514 2.08933,4.68447 4.68447,4.68447 h 58.91061 c 2.59514,0 4.68499,-2.08932 4.68499,-4.68447 v -4.6514 h -1.87172 c -1.9696,0 -3.55534,-1.58522 -3.55534,-3.55482 0,-1.96961 1.58574,-3.55534 3.55534,-3.55534 h 1.87172 v -6.93498 h -1.87172 c -1.9696,0 -3.55534,-1.58573 -3.55534,-3.55533 0,-1.96961 1.58574,-3.55483 3.55534,-3.55483 h 1.87172 v -6.93497 h -1.87172 c -1.9696,0 -3.55534,-1.58574 -3.55534,-3.55534 0,-1.9696 1.58574,-3.55482 3.55534,-3.55482 h 1.87172 v -4.6514 c 0,-0.0747 -0.008,-0.14732 -0.0114,-0.22117 0.003,-0.0738 0.0114,-0.14651 0.0114,-0.22118 v -10.70994 c 0,-2.59021 -2.086,-4.67568 -4.6762,-4.67568 h -4.34186 c -1.81914,1.8931 -4.31837,10.79985 -6.73034,10.79985 h -36.78431 c -2.61023,0 -5.16009,-8.65081 -6.72983,-10.79985 z" />
      <path
         id="path11"
         mask="url(#mask13)"
         style="color:#000000;display:inline;opacity:0.8;mix-blend-mode:overlay;fill:#000000;fill-opacity:1;stroke-linecap:round;stroke-linejoin:round;-inkscape-stroke:none;paint-order:stroke markers fill;filter:url(#filter14)"
         d="m -100.09972,63.76352 c -2.87422,0 -5.20485,2.331129 -5.20485,5.205367 v 10.710974 c 0,0.100591 0.006,0.16851 0.01,0.220659 -0.003,0.0522 -0.01,0.119237 -0.01,0.220658 v 4.652429 a 0.52921956,0.52921956 0 0 0 0.52917,0.529167 h 1.87327 c 1.68568,0 3.025139,1.339561 3.025139,3.025138 0,1.685577 -1.339559,3.025655 -3.025139,3.025655 h -1.87327 a 0.52921956,0.52921956 0 0 0 -0.52917,0.529167 v 6.935494 a 0.52921956,0.52921956 0 0 0 0.52917,0.529683 h 1.87327 c 1.68568,0 3.025139,1.339549 3.025139,3.025139 0,1.68557 -1.339559,3.02514 -3.025139,3.02514 h -1.87327 a 0.52921956,0.52921956 0 0 0 -0.52917,0.52968 v 6.9355 a 0.52921956,0.52921956 0 0 0 0.52917,0.52916 h 1.87327 c 1.68558,0 3.025139,1.34007 3.025139,3.02566 0,1.68557 -1.339459,3.0272 -3.025139,3.0272 h -1.87327 a 0.52921956,0.52921956 0 0 0 -0.52917,0.5271 v 4.65243 c 0,2.87916 2.33551,5.21312 5.21467,5.21312 h 58.9101 c 2.879151,0 5.213119,-2.33396 5.213119,-5.21312 v -4.65243 a 0.52921956,0.52921956 0 0 0 -0.529167,-0.5271 h -1.871204 c -1.685666,0 -3.025655,-1.34163 -3.025655,-3.0272 0,-1.68559 1.34008,-3.02566 3.025655,-3.02566 h 1.871204 a 0.52921956,0.52921956 0 0 0 0.529167,-0.52916 v -6.9355 a 0.52921956,0.52921956 0 0 0 -0.529167,-0.52968 h -1.871204 c -1.685573,0 -3.025655,-1.33957 -3.025655,-3.02514 0,-1.68559 1.339988,-3.025139 3.025655,-3.025139 h 1.871204 a 0.52921956,0.52921956 0 0 0 0.529167,-0.529683 v -6.935494 a 0.52921956,0.52921956 0 0 0 -0.529167,-0.529167 h -1.871204 c -1.685574,0 -3.025655,-1.340079 -3.025655,-3.025655 0,-1.685576 1.339989,-3.025138 3.025655,-3.025138 h 1.871204 a 0.52921956,0.52921956 0 0 0 0.529167,-0.529167 v -4.652429 c 0,-0.10143 -0.0065,-0.168479 -0.0098,-0.220658 0.0033,-0.05214 0.0098,-0.120064 0.0098,-0.220659 V 68.968887 c 0,-2.874238 -2.331129,-5.205367 -5.205367,-5.205367 h -4.341854 a 0.52921956,0.52921956 0 0 0 -0.380855,0.164331 c -0.55648,0.579106 -1.04153,1.507694 -1.576132,2.623096 -0.534601,1.115403 -1.091739,2.406893 -1.663981,3.628719 -0.57224,1.221827 -1.162906,2.374707 -1.730127,3.189469 -0.567221,0.814762 -1.101932,1.195276 -1.379244,1.195276 h -36.783284 c -0.360261,0 -0.916085,-0.380092 -1.507401,-1.172021 -0.591318,-0.791929 -1.196511,-1.918848 -1.769918,-3.12074 -0.573408,-1.201891 -1.118887,-2.481563 -1.62264,-3.601847 -0.503753,-1.120284 -0.950572,-2.068466 -1.402498,-2.687175 a 0.52921956,0.52921956 0 0 0 -0.427881,-0.219108 z m 0,1.05885 h 4.025597 c 0.323749,0.490326 0.726991,1.272687 1.181323,2.283065 0.497402,1.106158 1.046426,2.391531 1.632976,3.620968 0.58655,1.229437 1.206928,2.40177 1.876888,3.299023 0.669958,0.897252 1.410562,1.597835 2.355411,1.597835 h 36.783284 c 0.928669,0 1.61133,-0.734067 2.247925,-1.648478 0.636596,-0.91441 1.239107,-2.104553 1.820561,-3.346049 0.581452,-1.241494 1.139354,-2.533921 1.660364,-3.620967 0.485025,-1.011966 0.940558,-1.777135 1.28881,-2.185397 h 4.054533 c 2.306169,0 4.146517,1.840348 4.146517,4.146517 v 10.710974 c 0,0.03715 -0.0053,0.101355 -0.0098,0.196887 a 0.52921956,0.52921956 0 0 0 0,0.04909 c 0.0044,0.09563 0.0098,0.158102 0.0098,0.195337 v 4.122746 h -67.220699 v -4.122746 c 0,-0.03724 0.007,-0.09973 0.0119,-0.195337 a 0.52921956,0.52921956 0 0 0 0,-0.04909 c -0.004,-0.09552 -0.0119,-0.159734 -0.0119,-0.196887 V 68.968887 c 0,-2.306168 1.84036,-4.146517 4.14651,-4.146517 z m -0.83095,19.95072 h 60.592162 c -1.253524,0.697678 -2.112532,2.019943 -2.112532,3.554822 0,1.53488 0.859006,2.857661 2.112532,3.555339 h -60.592162 c 1.253424,-0.697706 2.112529,-2.020533 2.112529,-3.555339 0,-1.534806 -0.859107,-2.857116 -2.112529,-3.554822 z m -3.31556,7.639327 h 67.220699 v 5.876644 h -67.220699 z m 3.31556,6.405811 h 60.592162 c -1.253524,0.697677 -2.112532,2.019942 -2.112532,3.554822 0,1.53529 0.859486,2.85782 2.113566,3.55534 h -60.594236 c 1.253984,-0.69755 2.113569,-2.02012 2.113569,-3.55534 0,-1.53481 -0.859107,-2.857118 -2.112529,-3.554822 z m -3.31556,7.639322 h 67.220699 v 5.87665 h -67.220699 z m 3.31607,6.40582 h 60.590619 c -1.252973,0.69783 -2.111499,2.02035 -2.111499,3.55482 0,1.53529 0.859488,2.85781 2.113566,3.55534 h -60.594236 c 1.253982,-0.69755 2.113569,-2.02013 2.113569,-3.55534 0,-1.53456 -0.858925,-2.85702 -2.112019,-3.55482 z m -3.31607,7.63932 h 67.220699 v 4.12223 c 0,2.31113 -1.843151,4.15427 -4.154269,4.15427 h -58.9101 c -2.31112,0 -4.15633,-1.84315 -4.15633,-4.15427 z"
         transform="translate(212.42724,67.848206)" />
      <rect
         style="opacity:0.4;fill:url(#linearGradient23);fill-opacity:1;stroke:none;stroke-width:1.05833;stroke-linecap:round;stroke-linejoin:round;stroke-dasharray:none;stroke-opacity:1;paint-order:stroke markers fill"
         id="rect21"
         width="32.803547"
         height="54.215809"
         x="125.39024"
         y="142.94156" />
      <path
         id="rect3-5-3-6-5"
         style="opacity:0.4;fill:url(#linearGradient4-50);stroke-width:6.35;stroke-linecap:round;stroke-linejoin:round;stroke-opacity:0.4;paint-order:stroke markers fill"
         d="m 109.52395,152.62547 c 1.96961,0 3.55534,1.58521 3.55534,3.55482 0,1.9696 -1.58573,3.55534 -3.55534,3.55534 h 64.53612 c -1.96961,0 -3.55535,-1.58574 -3.55535,-3.55534 0,-1.96961 1.58574,-3.55482 3.55535,-3.55482 z"
         sodipodi:nodetypes="csccscc" />
      <path
         id="rect3-5-3-6-8-4"
         style="display:inline;opacity:0.4;fill:url(#linearGradient6-0);stroke-width:6.35;stroke-linecap:round;stroke-linejoin:round;stroke-opacity:0.4;paint-order:stroke markers fill"
         d="m 109.52395,166.66646 c 1.96961,0 3.55534,1.58521 3.55534,3.55482 0,1.9696 -1.58573,3.55534 -3.55534,3.55534 h 64.53612 c -1.96961,0 -3.55534,-1.58574 -3.55534,-3.55534 0,-1.96961 1.58573,-3.55482 3.55534,-3.55482 z"
         sodipodi:nodetypes="csccscc" />
      <path
         id="rect3-5-3-6-8-0-7"
         style="opacity:0.4;fill:url(#linearGradient7-6);stroke-width:6.35;stroke-linecap:round;stroke-linejoin:round;stroke-opacity:0.4;paint-order:stroke markers fill"
         d="m 109.52395,180.71212 c 1.96961,0 3.55534,1.58522 3.55534,3.55482 0,1.96961 -1.58573,3.55534 -3.55534,3.55534 h 64.53612 c -1.96962,0 -3.55535,-1.58573 -3.55535,-3.55534 0,-1.9696 1.58573,-3.55482 3.55535,-3.55482 z"
         sodipodi:nodetypes="csccscc" />
    </g>
  </g>
</svg>
