<?xml version="1.0" encoding="UTF-8" standalone="no"?>
<!-- Created with Inkscape (http://www.inkscape.org/) -->

<svg
   width="1920"
   height="512"
   viewBox="0 0 507.99997 135.46667"
   version="1.1"
   id="svg5"
   inkscape:version="1.3 (0e150ed6c4, 2023-07-21)"
   sodipodi:docname="doc-header.svg"
   inkscape:export-filename="orig-clean3.png"
   inkscape:export-xdpi="48"
   inkscape:export-ydpi="48"
   xmlns:inkscape="http://www.inkscape.org/namespaces/inkscape"
   xmlns:sodipodi="http://sodipodi.sourceforge.net/DTD/sodipodi-0.dtd"
   xmlns:xlink="http://www.w3.org/1999/xlink"
   xmlns="http://www.w3.org/2000/svg"
   xmlns:svg="http://www.w3.org/2000/svg">
  <sodipodi:namedview
     id="namedview7"
     pagecolor="#292929"
     bordercolor="#666666"
     borderopacity="1"
     inkscape:showpageshadow="0"
     inkscape:pageopacity="0"
     inkscape:pagecheckerboard="1"
     inkscape:deskcolor="#1a1a1a"
     inkscape:document-units="px"
     showgrid="false"
     inkscape:zoom="0.65186405"
     inkscape:cx="668.08409"
     inkscape:cy="444.87804"
     inkscape:window-width="3256"
     inkscape:window-height="1080"
     inkscape:window-x="1864"
     inkscape:window-y="0"
     inkscape:window-maximized="0"
     inkscape:current-layer="layer1" />
  <defs
     id="defs2">
    <linearGradient
       id="linearGradient9"
       inkscape:collect="always">
      <stop
         style="stop-color:#cccccc;stop-opacity:1;"
         offset="0"
         id="stop9" />
      <stop
         style="stop-color:#ffffff;stop-opacity:1;"
         offset="1"
         id="stop10" />
    </linearGradient>
    <linearGradient
       id="linearGradient1"
       inkscape:collect="always">
      <stop
         style="stop-color:#ff0000;stop-opacity:1;"
         offset="0"
         id="stop1" />
      <stop
         style="stop-color:#7b0000;stop-opacity:1;"
         offset="1"
         id="stop2" />
    </linearGradient>
    <linearGradient
       inkscape:collect="always"
       xlink:href="#linearGradient1"
       id="linearGradient7"
       x1="-40.367641"
       y1="135.46667"
       x2="-40.367641"
       y2="7.040176e-09"
       gradientUnits="userSpaceOnUse"
       gradientTransform="matrix(0.8796,0,0,1,279.223,-5.2427174e-6)" />
    <linearGradient
       inkscape:collect="always"
       xlink:href="#linearGradient9"
       id="linearGradient2"
       gradientUnits="userSpaceOnUse"
       gradientTransform="translate(24.341667)"
       x1="290.44449"
       y1="98.372078"
       x2="290.44449"
       y2="37.094582" />
  </defs>
  <g
     inkscape:label="Layer 1"
     inkscape:groupmode="layer"
     id="layer1">
    <rect
       style="fill:url(#linearGradient7);stroke-width:6.35;stroke-linecap:round;stroke-linejoin:round;stroke-opacity:0.4;paint-order:stroke markers fill"
       id="rect5"
       width="508"
       height="135.46667"
       x="-0.4162578"
       y="-5.2356772e-06"
       rx="0"
       ry="0"
       inkscape:label="header" />
    <g
       id="g5"
       transform="matrix(0.8796,0,0,1,137.84614,46.57157)"
       style="stroke-width:1.06625">
      <path
         id="rect3"
         style="fill:#ffffff;stroke-width:6.77066;stroke-linecap:round;stroke-linejoin:round;stroke-opacity:0.4;paint-order:stroke markers fill"
         d="m -99.72156,-32.056947 c -1.96961,0 -3.55534,1.585215 -3.55534,3.554822 v 43.60715 a 12.776985,12.776985 0 0 0 -3.82974,9.076453 12.776985,12.776985 0 0 0 12.776482,12.777 12.776985,12.776985 0 0 0 12.776997,-12.777 12.776985,12.776985 0 0 0 -3.82974,-9.118311 v -43.565292 c 0,-1.969607 -1.585731,-3.554822 -3.555338,-3.554822 z m 5.391402,49.888422 a 6.3499999,6.3499999 0 0 1 6.35,6.350003 6.3499999,6.3499999 0 0 1 -6.35,6.350002 6.3499999,6.3499999 0 0 1 -6.350002,-6.350002 6.3499999,6.3499999 0 0 1 6.350002,-6.350003 z" />
      <path
         id="rect1"
         style="fill:#ffffff;stroke-width:6.77066;stroke-linecap:round;stroke-linejoin:round;stroke-opacity:0.4;paint-order:stroke markers fill"
         d="m -123.78521,20.508309 c -2.59514,0 -4.68447,2.089326 -4.68447,4.684468 v 4.651396 h 1.87172 c 1.96961,0 3.55534,1.585217 3.55534,3.554822 0,1.969605 -1.58573,3.555338 -3.55534,3.555338 h -1.87172 v 6.934977 h 1.87172 c 1.96961,0 3.55534,1.585217 3.55534,3.554822 0,1.969605 -1.58573,3.555338 -3.55534,3.555338 h -1.87172 v 6.934978 h 1.87172 c 1.96961,0 3.55534,1.585733 3.55534,3.555338 0,1.969605 -1.58573,3.554822 -3.55534,3.554822 h -1.87172 v 4.651395 c 0,2.595142 2.08933,4.684469 4.68447,4.684469 h 58.910618 c 2.595142,0 4.684468,-2.089327 4.684468,-4.684469 v -4.651395 h -1.871203 c -1.969605,0 -3.555339,-1.585217 -3.555339,-3.554822 0,-1.969605 1.585734,-3.555338 3.555339,-3.555338 h 1.871203 V 50.99947 h -1.871203 c -1.969605,0 -3.555339,-1.585733 -3.555339,-3.555338 0,-1.969605 1.585734,-3.554822 3.555339,-3.554822 h 1.871203 v -6.934977 h -1.871203 c -1.969605,0 -3.555339,-1.585733 -3.555339,-3.555338 0,-1.969605 1.585734,-3.554822 3.555339,-3.554822 h 1.871203 v -4.651396 c 0,-2.595142 -2.089326,-4.684468 -4.684468,-4.684468 z" />
      <path
         id="rect3-5-3"
         style="fill:#000000;fill-opacity:0.2;stroke-width:6.77066;stroke-linecap:round;stroke-linejoin:round;stroke-opacity:0.4;paint-order:stroke markers fill"
         d="m -126.59796,29.844173 c 1.96961,0 3.55534,1.585217 3.55534,3.554822 0,1.969605 -1.58573,3.555338 -3.55534,3.555338 h 64.536116 c -1.969605,0 -3.555339,-1.585733 -3.555339,-3.555338 0,-1.969605 1.585734,-3.554822 3.555339,-3.554822 z m 0,14.045137 c 1.96961,0 3.55534,1.585214 3.55534,3.554822 0,1.969608 -1.58573,3.555338 -3.55534,3.555338 h 64.536116 c -1.969605,0 -3.555339,-1.58573 -3.555339,-3.555338 0,-1.969608 1.585734,-3.554822 3.555339,-3.554822 z m 0,14.045138 c 1.96961,0 3.55534,1.58573 3.55534,3.555338 0,1.969598 -1.58573,3.554822 -3.55534,3.554822 h 64.536116 c -1.969605,0 -3.555339,-1.585224 -3.555339,-3.554822 0,-1.969608 1.585734,-3.555338 3.555339,-3.555338 z"
         sodipodi:nodetypes="csccscccsccscccsccscc" />
      <path
         id="rect4"
         style="fill:#ffffff;stroke-width:6.77066;stroke-linecap:round;stroke-linejoin:round;stroke-opacity:0.4;paint-order:stroke markers fill"
         d="m -123.79399,9.3648029 c -2.59021,0 -4.67569,2.0854721 -4.67569,4.6756831 v 10.709941 c 0,2.590211 2.08548,4.675683 4.67569,4.675683 h 58.928183 c 2.590211,0 4.675683,-2.085472 4.675683,-4.675683 V 14.040486 c 0,-2.590211 -2.085472,-4.6756831 -4.675683,-4.6756831 h -4.341854 C -71.026806,11.257911 -73.526032,20.16466 -75.938,20.16466 h -36.78432 c -2.61023,0 -5.16008,-8.65081 -6.72982,-10.7998571 z"
         sodipodi:nodetypes="sssssssscsscs" />
    </g>
    <text
       xml:space="preserve"
       style="font-style:normal;font-weight:normal;font-size:63.5px;line-height:1.25;font-family:sans-serif;display:inline;fill:url(#linearGradient2);stroke:none;stroke-width:0.264583"
       x="140.51869"
       y="83.13208"
       id="text3"><tspan
         sodipodi:role="line"
         style="font-style:normal;font-variant:normal;font-weight:900;font-stretch:normal;font-size:63.5px;font-family:'TASA Orbiter Display';-inkscape-font-specification:'TASA Orbiter Display, Heavy';font-variant-ligatures:normal;font-variant-caps:normal;font-variant-numeric:normal;font-variant-east-asian:normal;fill:url(#linearGradient2);stroke-width:0.264583"
         x="140.51869"
         y="83.13208"
         id="tspan3">Open Steam</tspan></text>
    <text
       xml:space="preserve"
       style="font-style:normal;font-weight:normal;font-size:10.5833px;line-height:1.25;font-family:sans-serif;fill:#000000;fill-opacity:1;stroke:none;stroke-width:0.264583"
       x="201.67476"
       y="98.58374"
       id="text4"><tspan
         sodipodi:role="line"
         id="tspan4"
         style="fill:#ffffff;stroke-width:0.264583"
         x="201.67476"
         y="98.58374">OpenSteamworks.Client + OpenSteamworks</tspan></text>
  </g>
</svg>
