<?xml version="1.0" encoding="UTF-8" standalone="no"?>
<!-- Created with Inkscape (http://www.inkscape.org/) -->

<svg
   width="512"
   height="512"
   viewBox="0 0 135.46666 135.46667"
   version="1.1"
   id="svg5"
   inkscape:version="1.3 (0e150ed6c4, 2023-07-21)"
   sodipodi:docname="logo2-original.svg"
   inkscape:export-filename="orig-clean3.png"
   inkscape:export-xdpi="48"
   inkscape:export-ydpi="48"
   xmlns:inkscape="http://www.inkscape.org/namespaces/inkscape"
   xmlns:sodipodi="http://sodipodi.sourceforge.net/DTD/sodipodi-0.dtd"
   xmlns:xlink="http://www.w3.org/1999/xlink"
   xmlns="http://www.w3.org/2000/svg"
   xmlns:svg="http://www.w3.org/2000/svg">
  <sodipodi:namedview
     id="namedview7"
     pagecolor="#292929"
     bordercolor="#666666"
     borderopacity="1"
     inkscape:showpageshadow="0"
     inkscape:pageopacity="0"
     inkscape:pagecheckerboard="1"
     inkscape:deskcolor="#1a1a1a"
     inkscape:document-units="px"
     showgrid="false"
     inkscape:zoom="1.3037281"
     inkscape:cx="62.513035"
     inkscape:cy="278.43229"
     inkscape:window-width="3256"
     inkscape:window-height="1080"
     inkscape:window-x="1864"
     inkscape:window-y="0"
     inkscape:window-maximized="0"
     inkscape:current-layer="layer1" />
  <defs
     id="defs2">
    <linearGradient
       id="linearGradient1"
       inkscape:collect="always">
      <stop
         style="stop-color:#ff0000;stop-opacity:1;"
         offset="0"
         id="stop1" />
      <stop
         style="stop-color:#7b0000;stop-opacity:1;"
         offset="1"
         id="stop2" />
    </linearGradient>
    <linearGradient
       inkscape:collect="always"
       xlink:href="#linearGradient1"
       id="linearGradient2"
       x1="0"
       y1="67.73333"
       x2="135.46666"
       y2="67.73333"
       gradientUnits="userSpaceOnUse"
       gradientTransform="translate(24.792119,-92.525449)" />
  </defs>
  <g
     inkscape:label="Layer 1"
     inkscape:groupmode="layer"
     id="layer1">
    <circle
       style="display:inline;fill:url(#linearGradient2);stroke-width:6.35;stroke-linecap:round;stroke-linejoin:round;stroke-opacity:0.4;paint-order:stroke markers fill"
       id="circle4"
       cx="92.525452"
       cy="-24.79212"
       r="67.73333"
       transform="rotate(60)"
       inkscape:export-filename="orig-clean4.png"
       inkscape:export-xdpi="48"
       inkscape:export-ydpi="48" />
    <path
       id="path4"
       style="display:inline;fill:#f9f9f9;stroke-width:6.35;stroke-linecap:round;stroke-linejoin:round;stroke-opacity:0.4;paint-order:stroke markers fill"
       d="M 111.94895,17.159539 A 21.559549,21.559549 0 0 0 90.389385,38.719101 21.559549,21.559549 0 0 0 96.451159,53.63368 l -20.27685,35.120491 a 14.82219,14.82219 0 0 0 -1.617635,-0.09187 14.82219,14.82219 0 0 0 -11.532779,5.557643 L 8.9546214,79.732158 C 6.1340575,78.97639 3.2549644,80.638785 2.4991965,83.45935 l -0.358764,1.339113 c -0.7557678,2.820564 0.9066269,5.699657 3.7271912,6.455425 L 59.915964,105.73644 a 14.82219,14.82219 0 0 0 14.64071,12.57069 14.82219,14.82219 0 0 0 14.822125,-14.82212 14.82219,14.82219 0 0 0 -2.8736,-8.768497 L 106.77915,59.601838 a 21.559549,21.559549 0 0 0 5.1698,0.676824 21.559549,21.559549 0 0 0 21.55957,-21.559561 21.559549,21.559549 0 0 0 -21.55957,-21.559562 z" />
  </g>
</svg>
