<?xml version="1.0" encoding="UTF-8" standalone="no"?>
<!-- Created with Inkscape (http://www.inkscape.org/) -->

<svg
   width="512"
   height="512"
   viewBox="0 0 135.46666 135.46667"
   version="1.1"
   id="svg5"
   sodipodi:docname="logo2-breakout-white.svg"
   inkscape:version="1.3 (0e150ed6c4, 2023-07-21)"
   xmlns:inkscape="http://www.inkscape.org/namespaces/inkscape"
   xmlns:sodipodi="http://sodipodi.sourceforge.net/DTD/sodipodi-0.dtd"
   xmlns:xlink="http://www.w3.org/1999/xlink"
   xmlns="http://www.w3.org/2000/svg"
   xmlns:svg="http://www.w3.org/2000/svg">
  <sodipodi:namedview
     id="namedview1"
     pagecolor="#505050"
     bordercolor="#ffffff"
     borderopacity="1"
     inkscape:showpageshadow="0"
     inkscape:pageopacity="0"
     inkscape:pagecheckerboard="1"
     inkscape:deskcolor="#d1d1d1"
     inkscape:zoom="1.1953125"
     inkscape:cx="256"
     inkscape:cy="256"
     inkscape:window-width="1440"
     inkscape:window-height="810"
     inkscape:window-x="3845"
     inkscape:window-y="5"
     inkscape:window-maximized="0"
     inkscape:current-layer="svg5" />
  <defs
     id="defs2">
    <linearGradient
       id="linearGradient1">
      <stop
         style="stop-color:#ff0000;stop-opacity:1;"
         offset="0"
         id="stop1" />
      <stop
         style="stop-color:#7b0000;stop-opacity:1;"
         offset="1"
         id="stop2" />
    </linearGradient>
    <linearGradient
       xlink:href="#linearGradient1"
       id="linearGradient2"
       x1="0"
       y1="67.73333"
       x2="135.46666"
       y2="67.73333"
       gradientUnits="userSpaceOnUse"
       gradientTransform="translate(24.792119,-92.525449)" />
  </defs>
  <g
     id="layer1"
     style="display:inline">
    <circle
       style="display:inline;fill:url(#linearGradient2);stroke-width:6.35;stroke-linecap:round;stroke-linejoin:round;stroke-opacity:0.4;paint-order:stroke markers fill"
       id="circle4"
       cx="92.525452"
       cy="-24.79212"
       r="67.73333"
       transform="rotate(60)" />
  </g>
  <path
     id="circle7"
     style="display:inline;fill:#ffffff;fill-opacity:1;stroke-width:6.35;stroke-linecap:round;stroke-linejoin:round;stroke-opacity:0.4;paint-order:stroke markers fill"
     d="M 111.89992,17.169967 A 21.555104,21.555104 0 0 0 90.344801,38.725082 21.555104,21.555104 0 0 0 93.463718,49.824125 L 74.979267,88.66961 a 14.819134,14.819134 0 0 0 -0.463914,-0.01162 14.819134,14.819134 0 0 0 -9.623589,3.559577 L 9.0041449,79.441337 c -2.846048,-0.650621 -5.698483,0.906445 -6.454094,3.726424 l -0.35869,1.338838 c -0.7556141,2.819987 0.944432,5.568751 3.726423,6.454093 L 60.556093,108.34873 a 14.819134,14.819134 0 0 0 13.95926,9.94797 14.819134,14.819134 0 0 0 14.819071,-14.81907 14.819134,14.819134 0 0 0 -2.227134,-7.806298 l 24.3915,-35.419618 a 21.555104,21.555104 0 0 0 0.40113,0.02848 21.555104,21.555104 0 0 0 21.55512,-21.555116 21.555104,21.555104 0 0 0 -21.55512,-21.555114 z" />
</svg>
