<?xml version="1.0" encoding="UTF-8" standalone="no"?>
<!-- Created with Inkscape (http://www.inkscape.org/) -->

<svg
   width="512"
   height="512"
   viewBox="0 0 135.46666 135.46667"
   version="1.1"
   id="svg5"
   sodipodi:docname="opensteam-piston-flat-light-theme-tray.svg"
   inkscape:version="1.3 (0e150ed6c4, 2023-07-21)"
   xmlns:inkscape="http://www.inkscape.org/namespaces/inkscape"
   xmlns:sodipodi="http://sodipodi.sourceforge.net/DTD/sodipodi-0.dtd"
   xmlns:xlink="http://www.w3.org/1999/xlink"
   xmlns="http://www.w3.org/2000/svg"
   xmlns:svg="http://www.w3.org/2000/svg">
  <sodipodi:namedview
     id="namedview1"
     pagecolor="#505050"
     bordercolor="#ffffff"
     borderopacity="1"
     inkscape:showpageshadow="0"
     inkscape:pageopacity="0"
     inkscape:pagecheckerboard="1"
     inkscape:deskcolor="#d1d1d1"
     inkscape:zoom="1.1953125"
     inkscape:cx="255.5817"
     inkscape:cy="256"
     inkscape:window-width="3256"
     inkscape:window-height="1080"
     inkscape:window-x="1864"
     inkscape:window-y="0"
     inkscape:window-maximized="0"
     inkscape:current-layer="svg5" />
  <defs
     id="defs2">
    <linearGradient
       id="linearGradient1">
      <stop
         style="stop-color:#ff0000;stop-opacity:1;"
         offset="0"
         id="stop1" />
      <stop
         style="stop-color:#7b0000;stop-opacity:1;"
         offset="1"
         id="stop2" />
    </linearGradient>
    <linearGradient
       xlink:href="#linearGradient1"
       id="linearGradient2"
       x1="0"
       y1="67.73333"
       x2="135.46666"
       y2="67.73333"
       gradientUnits="userSpaceOnUse"
       gradientTransform="translate(24.792119,-92.525449)" />
    <linearGradient
       xlink:href="#linearGradient1"
       id="linearGradient5"
       gradientUnits="userSpaceOnUse"
       gradientTransform="translate(-160.25878,-42.941209)"
       x1="0"
       y1="67.73333"
       x2="135.46666"
       y2="67.73333" />
  </defs>
  <path
     id="path1"
     style="display:inline;fill:#000000;fill-opacity:1;stroke-width:6.35;stroke-linecap:round;stroke-linejoin:round;stroke-opacity:0.4;paint-order:stroke markers fill"
     d="M 35.54443 -61.411797 A 67.73333 67.73333 0 0 0 24.791978 -24.792203 A 67.73333 67.73333 0 0 0 92.525371 42.941355 A 67.73333 67.73333 0 0 0 160.25893 -24.792038 A 67.73333 67.73333 0 0 0 92.525535 -92.525595 A 67.73333 67.73333 0 0 0 35.54443 -61.411797 z M 43.740958 -46.73181 L 49.132619 -56.07044 C 50.11742 -57.776166 52.283128 -58.356844 53.988854 -57.372042 L 91.717062 -35.589651 A 12.776985 12.776985 0 0 1 97.694166 -35.739305 L 100.85754 -41.218427 C 102.06352 -43.307248 95.599663 -49.925025 94.869757 -52.447 L 97.040684 -56.207156 C 98.335787 -58.450339 101.18486 -59.214125 103.42805 -57.919022 L 112.70313 -52.564052 C 112.76779 -52.526718 112.8268 -52.483484 112.88898 -52.443619 C 112.95466 -52.409663 113.0215 -52.380241 113.08621 -52.342877 L 117.11444 -50.017179 L 116.17858 -48.396222 C 115.19378 -46.690497 115.77375 -44.524598 117.47948 -43.539797 C 119.1852 -42.554997 121.35136 -43.135417 122.33616 -44.841141 L 123.27202 -46.462099 L 129.27788 -42.99461 L 128.34202 -41.373653 C 127.35722 -39.667928 127.9372 -37.502029 129.64292 -36.517229 C 131.34865 -35.532428 133.5148 -36.112848 134.4996 -37.818573 L 135.43546 -39.43953 L 141.44133 -35.972042 L 140.50547 -34.351084 C 139.52067 -32.64536 140.10108 -30.479206 141.80681 -29.494402 C 143.51254 -28.509603 145.67825 -29.09028 146.66305 -30.796004 L 147.59891 -32.416961 L 151.62714 -30.091264 C 153.8746 -28.79369 154.63908 -25.939167 153.34151 -23.691713 L 123.88621 27.326376 C 122.58864 29.573829 119.73456 30.338579 117.4871 29.041011 L 113.45888 26.715313 L 114.39474 25.094356 C 115.37954 23.388627 114.79956 21.22273 113.09384 20.237931 C 111.38811 19.253127 109.22196 19.833547 108.23716 21.539275 L 107.3013 23.160233 L 101.29543 19.692744 L 102.23129 18.071787 C 103.21609 16.366058 102.63567 14.199905 100.92995 13.215104 C 99.224221 12.230304 97.058513 12.810978 96.07371 14.516707 L 95.13785 16.137664 L 89.131984 12.670176 L 90.067844 11.049218 C 91.052647 9.3434894 90.472224 7.177336 88.7665 6.1925355 C 87.060774 5.2077345 84.895068 5.7884093 83.910265 7.4941381 L 82.974404 9.1150955 L 78.946178 6.7893977 C 78.881461 6.7520337 78.822563 6.7088583 78.760319 6.6689644 C 78.694701 6.6350382 78.627754 6.605556 78.563091 6.5682226 L 69.288011 1.2132523 C 67.044827 -0.081850379 66.281748 -2.9311149 67.57685 -5.1742977 L 69.747518 -8.9340058 C 72.393513 -9.2189169 81.160268 -7.101753 82.46538 -9.3622737 L 85.635729 -14.853479 A 12.776985 12.776985 0 0 1 82.806313 -20.072065 L 45.041855 -41.875386 C 43.336129 -42.860187 42.756155 -45.026081 43.740958 -46.73181 z M 89.641305 -26.456687 A 6.3499999 6.3499999 0 0 0 89.235251 -21.088034 L 94.119966 -29.548608 A 6.3499999 6.3499999 0 0 0 89.641305 -26.456687 z "
     transform="rotate(60)" />
</svg>
